<mxfile host="65bd71144e">
    <diagram id="HIP3nbAZw_EuaXWnEj3U" name="Page-1">
        <mxGraphModel dx="565" dy="692" grid="1" gridSize="10" guides="1" tooltips="1" connect="1" arrows="1" fold="1" page="1" pageScale="1" pageWidth="850" pageHeight="1100" math="0" shadow="0">
            <root>
                <mxCell id="0"/>
                <mxCell id="1" parent="0"/>
                <mxCell id="7" value="http://ics2o.mths.ca" style="swimlane;whiteSpace=wrap;html=1;" parent="1" vertex="1">
                    <mxGeometry x="45" y="40" width="760" height="480" as="geometry"/>
                </mxCell>
                <mxCell id="8" value="Volume of a Sphere, with a Query String" style="rounded=0;whiteSpace=wrap;html=1;" vertex="1" parent="7">
                    <mxGeometry y="20" width="760" height="60" as="geometry"/>
                </mxCell>
                <mxCell id="9" value="Formula:" style="text;html=1;strokeColor=none;fillColor=none;align=center;verticalAlign=middle;whiteSpace=wrap;rounded=0;" vertex="1" parent="7">
                    <mxGeometry x="30" y="110" width="60" height="30" as="geometry"/>
                </mxCell>
                <mxCell id="10" value="&lt;div style=&quot;text-align: start;&quot;&gt;&lt;span style=&quot;background-color: initial;&quot;&gt;Volume = 4/3 πr&lt;/span&gt;&lt;span style=&quot;background-color: initial;&quot;&gt;³&lt;/span&gt;&lt;span style=&quot;background-color: initial;&quot;&gt;&amp;nbsp;&lt;/span&gt;&lt;/div&gt;" style="text;html=1;align=center;verticalAlign=middle;resizable=0;points=[];autosize=1;strokeColor=none;fillColor=none;" vertex="1" parent="7">
                    <mxGeometry x="24" y="143" width="120" height="30" as="geometry"/>
                </mxCell>
                <mxCell id="11" value="&lt;font style=&quot;font-size: 12px;&quot;&gt;The dimensions are:&lt;br&gt;&lt;br&gt;&lt;/font&gt;" style="text;html=1;align=center;verticalAlign=middle;resizable=0;points=[];autosize=1;strokeColor=none;fillColor=none;fontSize=6;" vertex="1" parent="7">
                    <mxGeometry x="26" y="180" width="130" height="40" as="geometry"/>
                </mxCell>
                <mxCell id="12" value="- Radius = null" style="text;html=1;align=center;verticalAlign=middle;resizable=0;points=[];autosize=1;strokeColor=none;fillColor=none;fontSize=12;" vertex="1" parent="7">
                    <mxGeometry x="26" y="215" width="100" height="30" as="geometry"/>
                </mxCell>
                <mxCell id="13" value="Volume is: null mm³" style="text;html=1;align=center;verticalAlign=middle;resizable=0;points=[];autosize=1;strokeColor=none;fillColor=none;fontSize=12;" vertex="1" parent="7">
                    <mxGeometry x="24" y="247" width="130" height="30" as="geometry"/>
                </mxCell>
                <mxCell id="14" value="" style="shape=image;verticalLabelPosition=bottom;labelBackgroundColor=default;verticalAlign=top;aspect=fixed;imageAspect=0;image=data:image/png,iVBORw0KGgoAAAANSUhEUgAAAggAAAEECAYAAABN1syFAAAAAXNSR0IArs4c6QAAIABJREFUeF7snQeYXVW5/n+7nTo1vRd6FemEJh1BpFxAECsgoDQRQVGx0DsCglcR/MtFuSgoIlJChwvSEZCWQEgIqZPJ1FN3/T/f2vtMToZAgElCklk7z2Ta2Xuv9a4953vXV97PiKIoQh8agY+BQJC81gQMeXqiEAyIDAMPA/mRI6/RT9bHQFW/VCPwEREwIAQC9T/YgCV/a6EJFlTl++TnH/GK+mUagWUiYGiCoJ+Mj4uA4gSAEAT1hXwY8Uf8bURA5eNeVr9eI6AR+AgIGBhYpIgwFUUQMmDIF/LHZ4Gb/Ex+rg+NwEAQ0ARhIOjpc5cgUCMKNa+BWdboaAQ0AisFAXEhpMEwYpauvAfyOVIEwVM/FhKhD43AwBDQBGFg+A3Os1VUSlwGElZIvAk1ghB7PeNtjT40AhqBlYOAxPmEHPQRhKiPIASG/HWasYdPHxqBASCgCcIAwBu0pwpBEGag8g5iguB6IaYRYVkh5VKZfK6xDx55uWx29KER0AisIARCj8AycKMI04C0+AwC4QgRkWUSiQfB0BRhBaE9aC+jCcKgXfqBTDzxICRegyCK8MyQhcU2MvkM3W4XqSBOVtSHRkAjsGIRUDkIkUloWGA5ZFIpcoZN2jdJWWm8MMC2nMTHt2Lvra82uBDQBGFwrfcKmW0timDWEqNMWFTtoGC5/OSmc/nP3GkYrRl831f3M00TQ7sQVgj2+iIaASuEsX4DoR/R1V1kxy124Iwvn0ILGdKRQ+iD7Uhtgz40AgNDQBOEgeE3KM/2klk7ca0VPh7dRi+nXX82rxRmQNqicbGJZVp1xEDHGAblw6InveIRMELCbEB3tUTayRN1B+y5yY786KjvkjeyGL6B5egkoBUP/OC7oiYIg2/NBzzjOHQgUc5Q1V5LjsFLHa9xzI3fJ22l+ct3/5vhqaGIK1QfGgGNwIpFQMqIC5QxyTCnYxZHXnwCTSNa+PvJv2NUanisjiD5QBKC0IdGYAAIaIIwAPAG7anyDiS7GMODKKXEkp6c9zzH3noW6+TGcu+JN9akkgYtRHriGoGVh0CEH3kYYYqQKrtdfjiLnRIPfOd/GJceTWBIwrAUOGiCsPLWYHBcWROEwbHOK3aW/QlCCE/OfZ4T/nY2I4JmHjn9j2CkVuw99dU0AhqBBIEIDw87ShGEVXa9/HA6U2Xu//YfGJ8eg68Jgn5SVhACmiCsICAH1WXeRxAinpj/PN/5688YEbTw0Gk3YZjpQQWJnqxGYNUhEOFGLnaURqjCblfEHoT7jv89E7JjqYYejiU6CDpRcdWtydp5J00Q1s51Xbmz6kcQzAiemPc8x9/2E8bbI7jnO7/DsrMrdwz66hqBQYtAhBe5RJ6DZQfsdPHBdGdd7jvh/zExOxY38rFMUVLUBGHQPiIraOKaIKwgIAfVZZZBEJ6c9yLf+stZjDOH88BpN+kchEH1QOjJrloEYg+C4TtYZsCUiw+mN+8x9fg/MD47Gp9ACZNpgrBqV2VtvJsmCGvjqq7sOWmCsLIR1tfXCHwIApog6Mdj1SCgCcKqwXntuosmCGvXeurZrGEIaIKwhi3YGjtcTRDW2KX7FAe+QgiCVHPHTeik85xqVyuHERBRJUD05B0s6fUQhkqNsdYgSj7Lv6ASQMbAC10cw8Y0bNFtinvYRBBKuwjpA9En/QjSyCa+kg+hapRLxaxSpUyOLHY1heFAZMo4pOWNHKY4bZUqlIwqHoeJERnqHmrYhLEuRKIQEWHF3XdVI4oIv641ryjh9V2mXo/aXNLbIr5mMmN1y1C10VY9+mSSyTACSzCUq8sdLRl4PAY1rlrzbZG9jlUp1G/lfHWDCEyXQM3LxoicGLT6m9eacHkQOBFVq0qGELNqg53Ck/tHHilD8LAI1folqxoYmNIPoK+3V0AUxaqaURjfXkQ0Qsm6F2Gf+tbh9Y93X39xHwxZt5TS31CHnGZITD7AMgzMMCQwDbwoxDEsbAFC5mQaau2tZPKyWrK6fTAZMuoIIzTV8xLJvAxpqCzQJw1HrHgFQoGttjY1qY++bqay3vLLuFdJ8kAsmVutT7oZX6v++OiqITWCkMIyfaZcfCC9eZ+px9+UhBgiDCPUIYal0NXffBIENEH4JKgN9nNWEEEIlWkTk2diBRC6UDU78dI9uOrtrYnI82lyGuJOdWJY1Bu7hRWahG7IwkyHSsVqIEuKPFVQ36eCiLIVf20H8Xt1aBr4ykjIR4WoaBE5Ns+XXmShO48hvS1MGbMTUeBTyRYxI5usSra08JT5D0gJsUDG4WCGBkFip0w1E/mdvPHbhDgJQRCjJpRHfmbEYxMDFNvQeF6JQRY7FCaS1DVjLkRH2TTLJzDEkDsYnqmYVWTLHMWwVZB8dicSw2krnMR+ykhiaiNGzVIgKIIjllLdPyK0SnhUcKTdT5QDPyEYYgzNhGBJE6Ai+I0RC802eoszSReh6GZoGjaBYZlGcoEYfgvfrOIpwmKTjjJEfkQkFtXyieimYqQJrZwah+mGCC/wyhXsXCOO3FAZ0NjIxkRDLVyMuVkFw8MM4nGqRmFOqHCRey7qaqNQXUSnX2Voy2iGOk2MsFpAWJQNFTMijauuFcRPnVpDdZhC4kLMwFIEIXACfLVqDnYoxEnWQLQ/IsJQUTEMxT5llDGVM4III/JFWzxmLkkzMzWphBQaCgtZiHh1avxwCRmURmgyng+nC67oIEiSouUy5RIhCC5Tj7uZ8dkx+JGBYQhh0joIg/2teqDz1wRhoAgOxvNXBEFQu8qI2j7drYb4ZsDri17j9ItPpa26gOHZ4dx0/v8wMTMBx7KVMJPaQ0eO2jXO8qdz4BlfpW3RIo7/3FGce/x56o1fLu1QpaLoQvz2bYlhJYUhhj3Z1gV+SNn0+NrVX+Gx+Q/R2t7CK795GcIQN+XRQDNOlO57o6/blC9Z9eVs+2J7K7s5GXm89ZedqshVy3dCkcBV1EEokYxTzI9Za5OpyENtVy9nBoqoyHnx5xCbPA7OEs9AQoSExig0hBUJKXA8ItMTMyg0pc8/ooxTYovFc1LFxcdVBEOuK/+80KNklLj07su59oFfE7T42CWLTd1NePDCB2mwmyAVKWMto4rnYFENXXzLZaE3hyfmPMx9jz3Mv/79PHajw6abbsIhuxzIVsO2YYw5luEpIWPJLl0RMkuNVShOHzGs25TLfcBTc0yT5oGXpnLEXUeSLma54JCLOHy7w2jyhVzKA+HjGUKE5B41w2wkXozkogZ4hqBaxqKs7go5IB8TAvUyeabkEKIhT6+Np3wqQv3kWZPxyNfxPWKSI6+TdZZV99UYFBn7wGP57U81QRiMb7yrfs6aIKx6zNf8O64wgiBvoPL2bxGE0EuFolnhwJ8czGx7OkbB55dfu5pDNj2ErNR8p2IDawYOgVXh4N9+nodmvkkmauaP3/kl+03cEyNKE6htt4cl78eW7DzjcIYyurIbNSy18/dDn4JZ5Mu/OYLHOh8kNdvh7V+/Q7PRqMxvPmhU7nAx8spAxBY92eGBbyc/r8VK+m8H5b5hnREyXLUDjneWtjIVYkAsqooYUHPx11zy4k43QlzDxIns+P7iPDBLyJ5ZkYJqLokbJI+V8grE5sgSZJVbQs4L1IevctzF3KbU+TIcxVRiFqXcLYF4V5SxkysIkbDp8Ofwvy/cwTm3X8pibwH54S1kurMct8PRnPfFH2Op9ZFbyb44nrMXRfSa3dz15h1c+McLmRPNw4x8XN+FVgO3FJG2mhm9cDg/O+gsvvb5L6l9fexnUXGemMolHn5TJuXHMEloI1DESnw14gmwuefNeznw4YPItee4bI9LOWaXo0m5iWCXLXGBKkSZGKj+xK4v3iXGOTb+ClghiEIV1JrJc1RNKEvsSVLXk5BHcs3IFG1D8ZbEdE8gVY+j+n0yAUXQ7Hh+tdBEbUyJ12F54QZNENb8t9E1YQaaIKwJq7S6jXEFEIRaGF32h/IGGlUDgozFfNq4/Zk7+Mm9Z1IJynxlna9z7deuo9nKK4+DIhSRTac/nw3OmUC7mSNTHMbrlz/CZH+UMiy+cg+HZCopZfS8xEOclt1fKINPEZiWcvN3Gl0ceeMRPNx2P829Tbx50XSaacQOUjiBRSlVpFeFMEzypOPgtLK+Hh1mBZMqKdI45HDkd+LBN4WelHAp0RgMAcOkaMrOtEpWwhQSBvBjwxMnTCQLXB+DV1518ZjEZjAVpRVBEJviKoIQkosaoJRUlIolStzzgbpXbN6tQAhOSMFwyahuf7FtjAwxYhIKkG9MKpIrQCgzVOVzuIlVTmx12VzMlj/dk3cbFpGdU+aJyx6kKZqMkcoxDJe0IV5/QclQXERISZdbZH5uDnuesTvlYWXcAgzzsuyy6bbQmObOpx4hCi0mB6OYevlfGWmvGzvrkzEuMZ7ygCSdwQR8SeJQk0gTlSKMbArf9Pnrq3dy1D3HMqwjx8X7/5wjd/k6hpFVyyUmPBVJOCIGW+WBxFNPCJPkiwgviE2zkD+ZhoSDFIkSnpWKKBORUhRBaFagQhCOkDDFJ2ISEkctbEV0lGemX25FYElAxMMmhRXZS5HOvijLcv7mNUFY3d4U187xaIKwdq7ryp3VAAlCvL+P3zdlH63emIuBeocuZ8osZjG7XrEHs3rnMKYwlr+d/Xc2ym9Ig9WAYUUUwwJ/ff4WTp96Kj3VZi489kpOnHwI+c4Imhw6rSrvlubwxMsPMX32HNq6C2wwcSJf2Xc/jI4S67duSlDOYafEcHscfMPBPLjoXpp7WnnrkrdoiZpwAptCqZdvXPM15lNiXWcIvznjV1jWENKhDLed8+6+hmdefowhzlAuOOUS1mlYX8X7F7kL+d5lp9DmzmPPyTty7NGn8duX7+S2B+5gYqaFHxz4LT4zbFPy2VF00Mvdb9zG3XfdixFaHLTPIez72X2pFiuMaRyFLaRDshsCcfGXmefN5/7XHuAfD9xFU34I/7Xfl/j8envRSAY8j6Dqk21sTPb/qBi7Z1Yp4dMU5DG6Y0JRbCyxgNm82fYa9z9+P6/NeZvPrL8pB2y7LzsMn0K2twnDtOmsdlJsLlK2C2z30z3pNjvZZcgG3PHdPxFUW3DSI0iFLinZYlu52NMSp2JQtnz+9PLNnH7raVSaSxy/48n8aNfTGBY2E4UpOm2XtlI70958kQO32Z20P1wZ4nmFNi76zYXM7niH9TaezPe/+V1enPEcUx/7J3M73uOAvb/Iflt8kRHReOxillAIULqX+2fcz9euO5p1h43h6D2PYvvtd+WRl17kznseYL0REzjmkC+z+YjtJRWVhopB6PoYTRl6VeOjkHLQw7+nP8UtD/+Nd6tVttpqR765y0F8xhxBaX43DaPGURTvSxDw/OwXuOzmKyi6Bc449jRaWvLc/s+/4Ecu13zllxhBiiDlUcSjaFZ5fPqT3H7X7RRKRQ7Ya2/23WEPWhlKKkjTaDXGJEE4WZxestwuCpogrNy3OH31xOkVRbUsKQ2JRuAjIjBAgiB3qXnrJbFP9lpUZGvsQT6iavTyrVtP4c637iboDThmt6M594ALaHGbCWyfBdEC9v7BLixsWkjYOYwnL3yKjaxRWEZAe6qT826/gruf+idzhs+kWvLIRs04fkQ2Mth7s9249Mu/pLFnGPlcjorj8V/XH8rUtnsY2j2c6VdMpynKYQYGBb+HdU+ejLPRaHLTe3j6N4/jGGPJexGhU+BLN53Mva/cSUulmed//QLDGYEZmSwK2tj1u7vS1rCALcauQ0+1yqvdc4kkszydJtce8Plt9maPKXvxy1uuZJbzNp7ktlUs8maO9bIbcsMpv2fd3Prk3RRe1aPcXOTiu8/nT4/fQldYIDe0kbbehZitFut3b8AVJ1zKjuO2Uy71vNPUV4wge90wqsbZ+YWMAj5qgTtn3sX3/9/pFFJF/DDA83oJTZ90aLPtiO258KiLGZUbQyaf4c7X/sbJv/shQd4nbfqYoYtZNmn2GrjihN+w30aHkha/v5NUJiTuIdfxOeeOc7jh5etZ5C3i/IPO59htjibf20iD3YDrhdjNBpWwQFqU/9w8XtDNolwHh194FK/3vsHEzdehq7OHjvmdYDu4QQlSFiOMEVx01MUcPOkg8oZFMSpwzxv/4NS7TmNRWzvbfmYzps96F1cSC00Lt+ipPIXdxu3Hb0+8ihFBFrvi0BGU8RttHnvnQa654SKmFV/FnQA9bogZZWmt5Dh8oz34+RE/obEyllymAawCd0y7ixOuP5XedIGtttuaaS9PI4hg4vAJPHPs46StLIVUB39+83Yu/PMldFndFL0iYQAN5RxjjTF88wvf5KjdjmIYw0mJjyOpcKjlr37YX6MmCB/xvUq/bEAIaA/CgOAbpCevAIKgDJUZ4amyOBNb2kZXI+wMFMNe3nZns9sPdsMfWaAhaOKpnz/LxOokAjvk7rZ/8vVffQnDtjhqu+M5f79zGFJppDvVzjmP/JLfPPAb7ExIGEbsvvnnGOUM4Z7H78YbEVIolvjCul/k+mN+Q3PYSNmscthvj+T+hVMZ1j2CN698kwZsoiik013MdufvwGw6mNjewIvXPo1lTaSpZBGkuzj01pO45507aOxp5t+XPc8ofwSWZ9LudLDdGVNYMGQeUZSiodciUw3JZNJ0pUMKlsSxQxrDDGk/wrKyzO2ZhzXcIJvNES2Ao7b+KhcdeSn5ag7P8LnuyV9ywdQLCJ2AMc4YvrLPN+nyu7jpvhvVrtNeZHH3BXex2dAtSPs5TFNyL8TmVFVmvaEy/w38lMf/tT/Ot68/gbnVBViVLFuN2YatJ2/OfW/8k7fKb2KbDhP9dbj93L8x3BzCXY//lXP+fiGL0724toRpPDKuTYs7nEu/dRWHbHIw6cBWBKE+pu5aVR5a8AhfvvQoKk0lRpZb2GHD3Thiz6+y6aiNGJcaRloCIVE6rs4oGASNJeYY89jt/L2Yby7ELbqkw0Y2G7E5W20yhUeff4x50UyCVJWGxXn+cPJN7DF+TyTF4MG37uWAWw7ESadIeVnsgkWqCk7GoMPopZoLaamO5gf7n8qJO3yNvN9Kr+nxqjeDr5/zZRZU36Ehl+GQfQ6jMZvn8ef+j9fnTyf0Q07e71R+vNsPaCw0Q66Hv7z7D4654QTl8bIjk4beLNmgmfXHbcZ9p91NaHo8MHMqX7vwa1SbK2SzGY4+5BjSxQx/e+wO2gpt5LqzXHL8JXxhy/1poUWVicZhtCUFth/0DqMJwiB9713F09YEYRUDvlbcbqAEQXZKKo4f4ZkhXpzWptyqvh9g2FCkynG//jr3zr9TZaBfuMdlnLrN9ylHHl/54xHc334nqc4sD57zKFunt8QqRzxX/jf7Xv5fFIYVGBU28Odv3MEWwzcjFRrMqkxj7/O/wLyWbsw2k/t+cjtThm6n0vEOu/5IHlzwAMO6RvLGlW8gRXiSL9DtdrHdz3akbVTE6OkBr177IqYxnoayhWd0c/Bfjuee9+6gqTyEVy94nrHuGIzAYKG1gG1+vBNzW2djR+P4+d6ncdLWB5CKAq579M/8/NH/ppIvki8FnD7lZE7e7UxK2SJPtj/BD68+k16vm+HVkdx7yVTGOeNZUFnIPhfuzdzmmYy3x3HPKXcziY0olyq8XX6VvX+9j9IS2H/s5/n1cb8lHzYjrXoiK85gkA29G1iqgU9bOJ+9fvE52rLzCXp8Ljn8Er602Tdo9Vt5z5nDjx44g9uf/SsNbjNHrncEF33jfOyqyWJnDtv+bB/ah5UYVmjgwbMfJFUaSmu+hSFGKEsEVi1ZLw68lyjRYXRxxh9/wNRX7sVwKrh2ijA0aTZybNG6LlPGbs8x+5/KyMwEUi5UMhHvmXPZ54K9mVN5VxGk03Y/hdP2O5Vc0EBv2M11T13F1Q9fopIgt3S24Z6zHyETZLjrP3dzxL2HEPoZRpTGce0JV7HzxM8QRAVuefk2fnH7pUojYX1/Ev93/t00esMop0OOufZkHpp/P0V7Eb/71o0cOuZwqBQophbzjd+fyD1tz5KPGnnl7MeZVBlDmLW5debfOOb3xxKkywzrbOCiL5/Dvp/ZjwZrCIaVo8Po5qCfHMg8f45KML35pzfz2dwW5Io53mx8k0N//V+UZhfZrGkT/nT2HxnCUCxJduwT7vjwEkVNENaKd9LVfhKaIKz2S7QaDnCgBEFlhyUx1w+YnuQo3PXanXzrj1+mp6nMrumduft79zG9fS67Xb4L5aZ2Nve2YurP/8mQ8jAq2ZCLnriGy+67nIYo4oRdj+SHnz8LIxpO1pPceI9/zP4Th912Cn7B5aIdT+as/c+nGMHBvz+AB9seZkjHSKZfPguJpAcUKFR72Pr0nVgwqZNRczL85+oXsRlOU2+OMO2x/+1HMnXmP8iUU8w/fxYtXqNKYqyYJSactT6LhrTTtLiZaZe8SqM1UmXoz/VmsOPPdmBxvouN7Q156IdP0ygiSEZK9vrsfPpOvDH0JfKlLM+c9SIb5Nfjvtf/zBF//h6lbIETt/4qP97hVIKohd60i2V28sWbDmDG3PmMWjSUp3/1NMOtUaqULpH5wVUFkRXyZYuFRjebn709nenZbJoby/0/fozGYKISm2qOTGb4b7DFedvhNnrsZG7NPT96ACNqwTNcPvvjzZjV8DaZQhOzLnyXkX5zXB9plUC0AoI0knPnG0lJZyirGFIxPe59Zip/fO4mnpz/Cl1mB5YtZYSQMvIM6x3H1V+/lC9uvJ9KkGi3e9j+oh2YGb1Na0czz1z4JOtE45S+QNU0mFuYx+cu2JaFzYsZX2hk2oULSQVZ/vedv3Hs/x5N1S9z5u5n8bPdf0TKiIsk50SL2OK7W9M9vMx6hXV445LnsMtpujML2eu8/XmjNItRY9fllhN+ywh3KCXDILArPL/g/zjt+u+Dk+XvP7yNzznbEIRZ/jnnLr5082FKr+DYCSdx2dcvxjTcuObDM3mj+iZ7n/dFik0hGw7ZnKuPuYqRbgOZ0KA9vZhrpl7Lvc//g7AccOd5d/GZ7NakvXRcOGHFKaY6xLAavvcNsiFpgjDIFnyFTHdFEITlDMQPocfoYq9Ld+SV6jSGlody86k38ehrz3P9s7+lVF7ADcfdwmHjDyBVzlLIljjmhpP557v3YroVrvrmuRy94TcgasaSqrXIZ3r0Ehtfvad4yDlh/IH8+ps3Ku/FQTfuz9T2BxjSMYK3Ln+PBpX/79FZXcTmP/ksbUM6GT9nNC9f9QoZs5VMxaRk9nDonV/hgen3kq+kefeiOTSFjWrnXgrLrPeDybQ1LWJMdSzTL5qGLQmCEZSsbiadOZmuxk52H7Yr95z0GLZbJko5Kid+lx/tyvONT5ArZXnhB/9h/dw6XHrneZz7/HVU04sY4aXIF7IsbsrRbXXSWClRzaUISzkmdI/lvkvuYkLDaFJKDjJO01fCiRLj90Le8Kaz/UW70+ss5OtbHcJ1B9xIvtJCJQPZakS33caEH61PqbXE5r3r8ciFTxJEzaTNkO3O3Iw3Gt6modjKzEvfY6ibi7P7HSECksRvqSoBua1KPPUCDMukHFYwHFGB6OW9sJvXZ0/jX8/fzxNv/x+vd89UZaSTGMZzFzxNPhxKh9nDjudPYYb/FqNKo3jx0hdpLbVgC6OwbbrNMut+fx061l/IsLl53hOCUEpxx5y/8rVbj1Ps86J9L+XbW3+LlBQYBB6FlMvGZ2xCW+NC1iuty4uXvEg6yLLQWsgmJ21KpdklbzbgRUX8lAgmNVApu9j5kCgdkS008auvXsuhEw8ka1j8c94/OfSPhyiNivN3uJJT9joJw6iqepYwMnlm8dMceNnn6cj1kDFsnHJaZR/6lk/WyeBLQmk6IOM53HjqTewz8gtkEoIQWrHQlCYIK+TdSl9kAAhogjAA8AbtqauAIMibadkocNlDl3DBo1erRLtdNt6RV2e8RXvPfCY3jOX/znmZEdW8KkkMMi6XPH4Vlz30S8oUOXHfb3LZdhcSiSCNZRBEvfx17m185foTMbPDOXenU/jRbmfgiwfhhi9wX/tUWrqG8tZls2mOMqo8sDtcxLo/nUhHtsLYtom89KtXyVs57O6I3vxidv/Nnkxve42Mm2H6xfPJIa79iIpfZdMzJ9LZ0EZTaQzvXvZO/OYfQneml4k/3Yie3Hx2y+/Igyc9IWrHhDnJFoApP9ieV5qfp7GY54Uf/od185P4/TP/zRl3n0+3vUC55bccuiVFpxnLSTGqWqEYRdhunvHmeE446DhaGppVmb2vRIsMVQlhV2L56Dei6Wx7/hSiYWU2KE/kkR8+RWvPUCr5snKFv+a9xbYX7ITXVGXL4kY8ed7D2EGGyHLZ9vtb8kZ2Js2lYUy/8l1a3Kza8Ur6QayJGRcUWiKnnOgChU5IwRZ1xSpDKiLPnFeuIzesMMd6j30uOojZ/gxSInz1i3cYzji66WGXX0xhFu+QWdzI01e+wFhjLCkpLPRcZhvdbPWL7enOz2ZEMJp3fjGdvJvmrndu47C/fAPbcLhk9ys5YYfjYnVGI6TD7mKT0zemu2kRk8qT+dclL+LQyFwWstfPd2dR8B7Ndpq9N9yXBq+FvJFTlZ49qaIiDSP8Jo7Y+ivsMHEn9Wd/z9x7OOzmg/HtiPO2uYxT9j2JtGFiVyzcbMjLHS9z0GX7sthuZ4Q9hp0m7czQ/Ah8Tx7skIZslt5qNw1mI9/e70Q2aF1fPR9BSiSqymRp1ARh0L7Brj4T1wRh9VmLNWckq4AgiESviOC8WZ3GrucdQHtuDpHIy5oWWb+R03Y5gTP3Opdm6Z3gSUl8lWfdFzjonC9RzJcYkm3mzuP+l9GtGysX+4LSNE68+nheqbxHqtLCXd+7hV1GbIdHwH/97otMbb9fJRu+eck7tNBE2reoRiU2PHMi85q7aCmN5PKTrmbHSdsr3cKbH7qRi572LpMaAAAgAElEQVS8QJXIZatpZlwwjwZaVDZF2S+x0VkTWNzYQa5nBG1XzCbriiADtOe7Wf8Xn6UrM5fdctvy0AlPYfombl4EjwN2+fEU/pN/ieZCA8/+6CXWaZjEm53/Yp8rvsECaxGbDVmHP37nesZmNiEij/gsXnjvSUYPH86Y1HjMgo2ddQhEQwnRgzBIR6aSRpad8Bx7Ljv/aGfaUnNo8vKcd8SlHL7FkaSMXjq8Kufecy03vP4/mH6VQ8cezh++eiW5qkO1scRnz9qaGc4cWopCEGbSIiqFUpqn+kGIMoOLKWmHIkYl0tlRQJfTxTn/cwFTdprCnhO3Ie2MJAhsUobP68VXOeq6bzHbf4eWdIrXz3yNoeFoCmYvO/9iO97wp9HktXLS3t/jm3sdR1rdxeOGB2/lsgeuoNLUxVb2Fjx45n0q4fQf02/n0L9+TSX5/XKvazlhu+NIRZYiRh1mBxufuRGdjZ1MKk/k6YteJBe10Gn0cujlh/Ba1wsqofO6o2/kyAlHkPJNqtmAadXZzGufzq5jNsOp5rGsFpX8et9793H4zYcozY1zd7yYk/Y4hWxk41RsROdgrjmHXX68F4szBVLVHDd870Y+N2xHWt0UlUyVNwriVbJYt3VdMqWMSnRUpC7tKoIgZFN7ENact8S1daSaIKytK7sy57UKCILyi3sR5VSFb992Bn958xa8TLfS1R8bTOShn97LRNbHkfCB7FbTAe3WQs79x0Xc/OitGHmDfNlhyyk709jaysP334kXFvAjm/03PYhff/0qsmGWquXypV8fwqNdj9JYaOSZi/7NcIaRDdPKcP/kL2fw25d/h9+QplKs0NDo4HSYapfa3rgINxuRKWZ4+7y3GBYOUVo5pajKpB9OontoL42lMbz9ixdpsbJYnkWHU2DS2Z+lmFvIHq3b8sC3nxDlIwqZAj0U+OJP9+fl1MsM6W3giR8/y6TGCURhgZ/ddzXXPnoDmUzAUNdmu8/uxLobfoYnnniWmTNnMGXDHbjs+EtpDptodGLJYiX/V2tnoHoE2LiWy2uVVzji54fR6XThlz22nLw5W228GU8+8TJv986n3FxhfDSCW354G1uwAXYY0pHtYIfzdmRGMIvhhVG8dvlrDJV6SdUUQnbp0kdCbmbHyoGRVK4WuPbeX/Hfj95Ie9RBa5hn9DobMnLYKCpti3hp+osUMj6tuSHsOn5Lbjj2/ynyV7KKTDlna96wpqkeEc3dw5g4bF22/9x2PPDog7S1LyJIV3Bcn9vOvpWdmnfDMDL8fdqdfPnWQ7HSJhftdgXHbXscjhHhehVK6SobnrEBXc0VJlcm8fwF/6LVG0rVrHDX7Hs57TffozfTS8UL2GLcpuy1xY6829bG1Kf+xRhaufn717HJ8M8SGCncsMBDbz/AMbceRTGq8ovPnc9xu5+ghLSyJfGQRBRzRf5n2q2cfv2Z2EMyeB0V9tl0F7aZuBkvL36J+198iM1HbMJV3/k1G6Y3oSWUnhGxRoVUQEhVhyYIK/NNTF/7oyCgCcJHQUm/ZmkEVgFBCKMQ05OufFXub3+Koy/5KmVnEZmGVjbJbcE/fvBnmqPW2AAquxRRoItes8gFf7mUvz95J4VsN0VDJIMdsoHBmEwzGzSty29Pu54mtxUrl6aCyzHXfJ2H508lX2zlmWueJy+ag2GajJdnTvFdvn7dkbxQmkbUEmCaBZzONC3WWJrGZXll3iwyJZN3L5tOiy8Nj6QCI2Cjs7Zgfq6Txp4m3rv6VfVz27cp2S4bnLYtpWGdTMlvwj2nPU4Q+BSdglLe2/O7uzMj9zpDK8O472cPMa51HCnPptPq4dp7ruHG+65XokNi8DwvIBNBc2E4W43cjitPu4rRmTHkjEysSCiSfkoROFB5AhEZ6ZlEaAXc/upf+O4fzqSY7cI0PQpuxFBnDNlSyKbDR/Hzo3/B1iP2wa/auJkqvXSx01k70pnpIL8wz+v//R+aVZ8CqVcVq+YsJfkcGQEdYRt/ffZ2rn/0//HawjewGxyKjpJApDEIsT2DtDmULXJbcMdZfyITZJU7ouiU2f68rXjdfhPbtdiwaTO63uui0+8m3ZIli0PeMznt4G9z7A7Hkqo246Yc7vjPPzn1lq9RiIpceMjlHLPdsYogIJ4Mimz9/W3obgoY2T2EV696hmyxkSioUGiq8I+ZU7ngpkt5y3+FoDlQeZeWa5ILWxldGMk1x/+SPTbbRz1qRaOXR19/hO/84RgqVpUzd/0J397v2yq8lK80EEYOBbOMmy7yxxdu5JrbrqTT6iTMQTnwSIcOQ/xGhlSH8evvXc/Wo7YlK1gmYklxsyrdrEm/7X76CGiC8OmvwZo3glVAEMQ9bivZ25C55mJ+duUPeXvmf3CaWzjn9IvYqnFjGuzGPjl7eU/1XA8jFdJrFJlTncODrz7A1MceprO7zAH7fIEDttudic5IWqNWAs/Bt0PKbpXz/3AOD741lbHp8dxy3l9UJ7yUkSJTzVGNqizIvs3Tc17niusvJxV1csQB32LnrQ7m1rt+zz2PTyWbtrnr7DsZmm7Ctk0Wdxb46jVf593ueWwyZn1uOeN/cCOXVJglDH0OP+coppdfZbuxW/O7E/8MKY+yXSJHA2f98gc8MOseJuYmctVJ1zFx3HilMmxGIYYV8nrndB56/XHueeweutraOGC3z7PDRluy8wY7kzdaMaKsKv8LrbgBtQgLO+orcV1nVCmhUY0o5HqZZXXw/NynefaJh3nmrZf57IY78I3PH8rWjWPIV1ugOIygAQqpMq5f4ogfHsZ7/lw2bt6Ev5zzv2Skl4RKNnCUCuSS7oVxv8T5i2bROKyJeUYn71Xm8fJbz/D3xx5izuw5fGbCOmyy/kYcuO+XWZcNGdKdxsqKGqNNj1Vkh3OnMLvhXSpzK7x4xb955tl/8cTTj1MIy+z9+X3YZaOdmMg4skUHK52lYvo8887z/OS671JpdDnpC6fzpa2/hG2KfLTDwp4OjrrsKDqiXtZvmMR1J/+S4ekxaszShMp3QtrdRfz7rad4+F/38cxLz7HFxpuz3/afZ8qGOzGmaRJGkCasung5eOLfT/KLP59NT6Wbnx1+HvtN+TyB6ZL18pRNA8eyMAJftWPuMhbzwCsPc/8Lj/DazOnsPHlH9lhvN/bYdg9yooAZq38nUs21Xtw6SXHNe2Nc+0asCcLat6Yrf0argCD0So886VUkLmJLWt/42FFAWVz7pV7G2S3YTgrXkDi7qcrLKIXYpokfViibRdJOCsNKIcVn0nkgLe2FC1Wshjx+CorlMpkgTdBQlaJGpbTX7DURKPU9D4oputxOmluld1+D6hfRmPLwKymqTobAqGCZLmWjRENBSuNcTMckU05Tbu4gLar9kUem2kLJCVSyYKpk4jWJnPRCRQgyXcOxWiJlvrNumiAF7SyUrgnkCzIWaXztYdo5XNuiHLjk7Ih0KJ0ZoStpyiT9DxrIxx4D6QOkquSixIsQ97CopkT9H8xybJBmlXoZmm8g3Vsl1VilYGapSn/CqExz1CxZonFcnAXYhRa8oSGddJGnhZybkxYT+Hbcu1GEilSYIWktofoxSAYoBt3FAlbOoiETUpLMEs8gb9h0ljqImhpVTH+4n1cKhVgZOqkw5dzPMcObQVNXE6/86iVGR0OodnThNDqUVFOoFLnQISVzkYKNlDShCugJC1RMl3TUQGMlj2mFKtYvlSvzGxeQlcZXUqVSdcgYzVJooXQ3pJeEUfUkToKXM+m2pOi0St6V3XwW1xGvTKRSBz0Rt8Kg0+7EpcqoYLSq9qw6FVJeCmwXvwKOkYmTOCUfRNovq96UIb1BkSgyyEU5slaaqltVYk6yRqoTpNSKag/Cyn8f03dYLgKaICwXIv2C9yGwCghCrK8YH9IhUHwJcTsh1c+xr0pcflfTnetrjKNenMTg5QJJ36FaS2MVno/7KqmXyTV8QwiIdAU0k+6P8mZuqQ5+cZtmeeOWm8fXlfC+DEi9rUc+prSgTgYs11S0xRD5J/km7h4p3m7pKCkd/3xDWjCJgmRK3U/GoJL7VMthT0k2W0pZLzb08oVEDPpKCJPkgrisMO6gWIv9x/GFBLy6RkHikFE9oGp5CcmYVJdII/Y6xJ0eQ3Vv9To1Ty+2cmaglC/FiAlOam2SOfd3iMtc+1zmyRoQCgDJJBJZYSFu0jHTDCJJxVBy2YtYyK4X78/MyhzGFYbw3OVP0hQOVYbekoRIU5pcCz6JtLNcX3XsjOmJm7RcVol/gl4YN4v2LcVaVCmqPABG0rhJDa+uI6fqx6V+IO2u41bTwrvk6MsMEI+V8p6AI823ZLqGjEpAlbBL8oAl3RnVCiZNqEIJ+ag1U6uRLFW8KLHPZ3m9HCPlkTL8lPJQTLn4IHrzHlOPv4nx2dGqUZkQ67jttD40Ap8cAU0QPjl2g/fMVUAQBi+4g3fmnuRpGJIvsIC9LzyUaYtnMqI7x4u/e4qUN5RUSvb++hDiEhMEB8sMmHLxwQlB+ENCEALlgNAEQT8rA0VAE4SBIjgYz9cEYTCu+kqfc+jK/t+j4nTzyJxnKHku2arB3hvujhM0EJkWhmYIyrOhCcJKfxz1DZTXS3dz1A/Cx0VAE4SPi5h+/UdAIPIkmVK889IiuUI18Gi28liBheFbRJaBYdcCTx/hgmvtSzRBWGuXdjWbmCYIq9mCrBHDWQZBeHzes3z7trOZ4Izi7m9fj2VLLb4+NAIfAwFJ7wglfh7H4EPJ9wgjTMtUqR+GtbzY/Me41xr90ggvcok8B8sO2OniQ+jKVLjvO/+PienxBEac/7IkU2eNnqwe/KeIgCYInyL4a+yt+xEEgogn5j/Hd/76M0YEzTxy+h/BSDr7rbGT1AP/NBAQ3SuhAY7kE4oGky3JgBJPjz/0IQiIB6GKTYYoctntiiNY7BS554QbmZQer5JcLUNSIDVi+nkZGAKaIAwMv8F5dj+CINnZT855nuP/+hNFEB7+3s2YVmZwYqNn/ckREPXFpFQyK+WH0pvAjn+WjrWwlp/g/8nvvgadGeHhYoVp1aNk18sOY7FT4t4Tf8/k1ER8UxOENWgxV+uhaoKwWi/Pajq4ZRGE+c9z7P+excT0KO4/5Q/1BWGr6ST0sFY7BHyoKt2FiFwQYoQRgW1SMUylGGnJc6c3xcqD4EVSCpsiCCt87rLDVYjh3m/fyMT0hJggqCJKDdZq94yvYQPSBGENW7DVYbhxeXxcL48o6BHy8uI3+eb1pynxohu/cznrNE5QFd5x1FjHjleHdVvdxyCaAxWlVBCQU0oHIlAlGpDSAio2d6LTMNgP0VCQvh0mGd6a/yYnXvND8s0N/P17NzAyNRw/8rGl4qNPSWSwI6bn/0kR0AThkyI3iM/zkrk7whQCeUP36DGLnHXTeTy14BWsfIpcl6lqsRVJUF9okjCIHxk99RWKQISRDih6VVJ2Dnoj9t9yd049+DgaRL3RN7Ac7T1YoZAP0otpgjBIF34g006E+DBjWUMlz9fhddNrVrnotit57u1/E+QtpIK2VkVrmro8bSCY63M1AjUERDFzZDVDFJhU3IDPbb0zJx58rDQpJxM5BD7YjlZR1E/MwBHQBGHgGA7CK9TJGCupYnEFB8zvXUBTcyMVSmSV6r8+NAIagZWBgK26kxj4kYFlGKQxSPsmjpXGDwMsSwI2+tAIDAwBTRAGht/gPDvpR1Dr3icS+9VqQMoxsK2ISqVKJi2tgPWhEdAIrBQEIl/1wZBwnxAB1axMykKDgMi2VIaQlDrqQyMwEAQ0QRgIeoP1XCEIyf5EmhbVmh6pL2rxBx0CHaxPh573qkBAdCLE/suH+rsTr56UeoA05ZIERU0PVsVCrN330ARh7V7fVTe7WtfAWpK5VVp199Z30ggMJgSElYeZOPG3jyAknUatWFhKuntqjj6YHoqVM1dNEFYOrmv1VWtcQO1Q6toJJ15O1X44pLpWY6AnpxH49BAwsHFUIahq/11r4Z18I2qUWnny01udtenOmiCsTau5iuZSV7ygetzHLAFkYyOJU/KdUr3Th0ZAI7DiEUjCejVNCEUGFFGPPQqaIKx4yAfrFTVBGKwrv5LmXeMFOoN6JQGsL6sRSBD4oL81/TeoH5EVhYAmCCsKSX0djYBGQCOgEdAIrEUIaIKwFi2mnopGQCOgEdAIaARWFAKaIKwoJPV1NAIaAY2ARkAjsBYhoAnCWrSYeioaAY2ARkAjoBFYUQhogrCikNTX0QhoBDQCGgGNwFqEgCYIa9Fi6qloBDQCGgGNgEZgRSGgCcKKQlJfRyOgEdAIaAQ0AmsRApogrEWLufpMpdaUQdQQYuGkJZ/7OkT3dZuT3wdRhCHSsbUjjDDkwzDUh7SNDsMQaRttmMnr+okxhWGsPqsu01+IYUn7CDWAIAgwpCOu0q1fcoL6uq6QPEBE7+Pfx/+SS9dfb/UBXo9EI6AR0AisMAQ0QVhhUOoLLUEgaRyjeMESklBvz6Wnfb0hTjhEnXJzos4ows2qeySKHNSOKAQ/EOO95LBtO75dckSKYMgQlhAKkYGOh2UQqs5S0vduCQFQv6wbaBhLRfYxjmVxD73yGgGNgEZgbURAE4S1cVVXhznVujrWbGv/Hb1s9+stsVj8SJrShcqbENmRame7ZN8OhkjJ9l1HDPzSLgT5vfyTXb94G9KWk9j7hGxIxzsx9Wbc6y52AtToQV3vu/rL9vcU1BOQZTgqVgfo9Rg0AhoBjcCKQEAThBWBor7G0gjUewf6Nt9RnXFXQYWlCELNJovRD6OIalTFDT1838cPfFzXpVqpKsMvnoMoComkr23dYVom4kVIpVLYlk3WyajPtu1gWRamaWAZqrUNQRRgG1ZCEKT3XY0s9CMKNaJTu1WdC0FHGfSDrxHQCKzNCGiCsDav7iqcmxhuCQWoHAHJGQjC2LVvSpt6MftB/HNpXS87fPV/QLFapre3l95SgSAMcT0Pz/fADPH8KpZpKYKgchHkn2kokuBWXUqlspphoVAkm83Q0NBIQ0Mez/PVOOzQ6nNSyHlCHuRIp9Lksjkasg1kM1kcx8ExU8qrIIeah/wTAhHGzEDCFfLPtGuvCfH9QJ2rD42ARkAjsDYioAnC2riqn+KcxLiKQVfEQBrSGiaRIVQgoFwp0l3ooVAq0u0WKFcreIGPk3L6cg9qngQz8jGiEMd2FGGoEQQx/L2FXhYuXIhlOojXoKe7h56eHmWshw0bxoQJE5RHwJYsRHFcGKa6hpMQhJjMQOD7OJajPA5pJyYNjfkmmvJN6r5ypEjHORC1QzlCDOWNqCUvfopw61trBDQCGoGVhoAmCCsN2sF3YTG8ardtQokKlUqZ3lIPXT2dFCsFgsAjNKQSwcAjVDt6MfyueAzEu1BXnCB7fZvYWyAfEiKoJRt6nkexWKQh36h+J9fp6upi0aJFtLe309DQwAYbbKA8BeK9kHPl8D0/zj8wVHJDnPQoRQuSmyApEGFEGIBlmOoaDbk8jfkGGjKNpO2MiorYpngVktCE5DzY8bX1oRHQCGgE1jYENEFY21b0U5iP7LCV58D3KZVKdJd6mFtpo1DoVaECyxZDKqWFHgG+KnxMGQ5hENclmpal3PdLFTaI0U427mLg5briIRAyICWK8tm2HKrVal/oQMawePFiZsyYQVNzE5PXmUQmk8Z1xQMBlmUrQiGvU+EOM85nsMw4nBAFkSIPKm1R5UzKvAIsbJqyTQxtHsrwxuGkraz6WSivdzRB+BQeOX1LjYBGYBUgoAnCKgB59b5FbJr7SQrE7nPlnq/pBMQ7bGVYDZ8QT53jhyFlt0pHTycdXZ0USyWVABhlIgy1Qw/xPJdU2lEVCmJw5W6pMDbEKqeg/uaJF0EMdWy8Y3KwYOEChg4ZSuuQVgJ/SXmjJYTB95HPQlCETEi4oauzE8MyGTVqFJZlEggZScoblY6C8A8jJIwkN0IIgoEUUqj5JR4FlZKg0ihMQj/ECAwcI0VrYyvNjS20NLUqz0KcHSHlkks8CyrGsXSF5Or9GOjRaQQ0AhqBfghogjDIHwnJE+hPEfwgVNn/Ugwodk4SBx1Hvo+Np08RN+ylq9TD/PY2Ogs9WOkUUlQgOX1yjrO0RMHSIkigDPKHHbVwgpCDtrY20uk0I0eO7BNNEi9ALXRQf52ad6BYKLJ4cafyLghJWEqEKTlBwg/06RzEP1wq32DpQkz1e/FeSM6CVFWI12F4w3BGDx9NPpVX3oe0mVH5DRKOUKGMhGT0jbE/E1P3/3AsBvkjqqevEdAIfEoIaILwKQG/uty23ncQKwKIFkHiUzAgCANMU0IAok8QUCj20tY1j8U9C6m4LnY6heXYeGGgyIF8iAiSXa+DkOzc6+e8PIJQU05csGCBMtqjR49Wxr4WzhBy8D5jniQTqt+FER0dXUybNo2xY8cyefJkJHdhaTLx8QlCLSdCxiLejaASKDKQz+YZPXIMTblmcqmcCkHIGAS7PvPfX19BuTQ0P1hd/hb0ODQCGoGlEdAEYRA+EWL+a2Sgzw1en6hvSOjAVxUCqhgxCljYtZBF7YsolAsEpqeEjGq6xmo3b0q1QuxVF5tnDZAgSAKhJB12d3crD0Aul+tLSJRQgngE6pUVa7v7mldBwhCW5fDaa6+pBMYtttiCfD4/YIJQ81DIhVRIwxB9BZPQCxQ7sk1HeRSGtg4lm8rhkFYhCkUSahjXf5Zf1EkvDMLHUU9ZI6ARWE0R0ARhNV2YlTms9xGEfjvbwAxVtYHkDHQUFvPOu+9QCcqksilCI6ASuESWiWPJLjkklFwBqRRItJDUprifK72/i395HgQxvlKRINcV74G49uVnNS+CuPn7ewRkd1/r2yC7+ygyVCjgmWeeUeWPG220UT+CIANemsksL8Qg15exyIfkPYRRrLkgCY5CEKRsUsiJJGCOGD6CySM2UHkKSepjTBVq2Zg1NqUJwsp83PW1NQIagU+IgCYInxC4te00Mbax2qCJi0tbVxvzF85XZYqGY8TSx4YE1iXBv9YRSb5NHOhhhJU0VupPDpaFVX+CUNuZyxhkLLUSSDHIQgzk6O8xWN4aBH6krjN79mxmzpzJVlttRXNzs7qe6sUgNY3LyUFQ5ZdJ6KKv+iH5PpZ6jiWj1Y9q/SKUKyWu7AjLBuNGjGf8mPE4pq1eLl4H+Se+FiESNfGl5c1H/14joBHQCKxKBDRBWJVory736suLk8yCEF+VHsbNizp7O5gxbyaVahnTNrAdCzfwiMSQSlGCys4XAxh3WVTegsSI1sjCshIC+0+9P0EQoy0EQDwDSl7Z99XXtZh/JpPpIwofCUbZ0CfOAfEivPHGG5TLZXbaaSflVZCSyf4Eob/3QN0nmVvtd7W5Lnlt0kxKcYJYSVLlSSRNpvLpRnq7C5iRycRxExgzdAwpIxXnJ2CqPAYdY/hIK6pfpBHQCKxiBDRBWMWAf+q3q7m3lY1XqYdKm6DH72Huwjks7lyMZ3ikMunEIMdGLy55jDPqhAiYYnyV80CyEpfssmvtmZc3z/4EoZZTIMZVQgtNTU19MsbizpcxfCwPQiQ5AnHIQbwIc+bMUTkNG2+8cZ08skxqSSxkWQShL12gXk2xvtqh5k2Qiggx9VZMEKR8UnhUuVxREtCRD0HFI2tnGTdqHCOHjMTGwsRWH/rQCGgENAKrGwKaIKxuK7KyxtM/g16FCoQe+MxaNJP57fNwqWKIqJEZx9nF3R8mIgWyA46Nv4kpeghSACB6Akl/BZXXEPdWTmbw4aV7faGJ5NXx/UzV32DWrFkqMbGpSZQS4x26yDErYaWPcchYa1UP4okQkiA790mTJqmrqBLPpQx/Eiqo3SOpMKhdI3YoxGSoz6NQRxZUCEJJMMfYyveBGb9WyT4HEVZkEbohLY0tTBw7kcZUIxapumKGj4bfx4BBv1QjoBHQCHwiBDRB+ESwrb4nLaU5tKRFooqJq51+KG2TVCCcRZ1tLOxcQFe5k9D2Cc2QyIyw/IQMSOChZvD7hRPU9ZKcgz57Wvs+EiMaG9Pa+f135/09CJJ3IGGEuXPnqhDAmDFj3tcIaXmhi/73UJoMCQbSCrq7u4eO9sVMmDCRTCqDF7nKkNcf/a9hJAZeEYq6XITa9/Xzq69wqJGIPnXIhFTUekrI+UKKhrdKIuM6ZKwUjlJxFOam6kAUhvKllZCO1fep0yPTCGgE1kYENEFYG1e1vmRRGaaks2KcRUclrDLzvZn0FLqphhUiKyS0wiTPIMIMks6JyyAA9YayZhzf9xnZuddCEkt23fVQ9ycItX4LssvPZrMMGTLkfeJGAyUI4p145aVXVFOmzTbZDDdyY9GG5FhWiKFGEOp/96EehX5JjYog1BEL5VVIpKKVRyIyyVpZxo8ax6im4bGXwUiphhZRDX+to7Q2/pXqOWkEVnsENEFY7ZfoYw6wLsdAts9KDlkC4Kq6LqKj0MXM+W9TcauxjIElwkgSL6jlykXIbruWfKiMWJ3qYc3F/j6vQfKDeIccE4T+534YQZBwhrR9ljyBESNGKJLQnxAMlCDImN58/U3aFrax8447Y6akH8OHE4RaGeSyvAcf5nnoe31CEOrPl5wI8ZLIz6RUUkok7ciiNdfMBhPWV70eQk+UIkWeWvIaNEP4mH8F+uUaAY3ACkBAE4QVAOJqdYk+ghDX+EvnAwkpVCOX+e3zmb9oPq5VjoWGpN+BaAuIrHJ9SCCx7v0TDmvf13bQy/q9qoCU3e/H9CDINSW8IKEGUT1cFhkYKEGQnIRSocRzzz7HJhttwtBRQ1U/hg8z9B/Vg1DzrNQTqLiaIT76Qg4JtjXJ5qpXVZ6bjJ0mqkbk7BzrTliP1txQ1RtCiSzpEMNq9SemB6MRGCwIaIKwtq20GCURL1LNAMAzfCq+y4w5M+gtF3DDKpGTKBEmjQJM5TFImieJtyAp6jvmSfYAACAASURBVP8wglDzDtTH4Pter/o2J2WQiffhfbH9JAYvu+lahYIoHsrX0mq5ZlQHsjz9cxCkYZPs1l/9z6sqF+MzW24e51xYlnL7L5OAGHGyYV9S4jJ0EeoJQG28fefUzX+ZOQpSSWIEGKERe24CCzu0mTh2EiNaRqjySNtw+pIjP2qVyEBw0+dqBDQCGgH1Hh8tK/CqsVljEah1S6zpG3SXu3l3/iy6i92qQsFK2fhh3JOgr7Wx0INE1yCORcQ5C/1DCx/F5a9eo64VywN+UJKikBghB5J7IId4MiSsII9jTRNhoIvQnyAor0ZkMG/uPN5+62222X5rco2xhLPcV0km18QTajdPPAz1XpNlkZcPCkEsVTyyjFLJuFmW5H8IL4uxwwcbm6HNQ5g4ajyNVovqRllbk49V7jlQEPX5GgGNwKBFQBOEtWzpRdVAkYPQp723nZmzZyivQaYhTdktqcqAyI/LEZU7PN6rx90Vk0oF8SB8YAJivy6Mn9SDIPeo7dxV4yPLUnF5uV6NOAyUu/YnCEJahCCUiiWeefoZNtx0A0aPHb2UUuOyCEK98e8fQqif/zITGT/Ag9L32sRbI6Eg1exKPktZpCIKIY3pBjYatTlN+Sa1UvUJjmvZo6unoxHQCKxmCGiCsJotyECH4+HjRT7vzpvFwkXzMRxUMl5VyEE6Lp0z/XRCDuLSR8lVUOKKKlFRrJQ0c1q6TLHmDYgNZEwqYuMoRCOOsfeRiiR0UU8y3mfsk9207IYrlYpqqCSVC7lsFi+RQl5ezsHysOpPEKSKQXolCAmY9c4s2aYzafLE2Gsgek8f4EFYdtXCEgw+0HuQlIL2Jxg1D4TCTP6FBoER4kn/CzPED3xV2mjJ7z2DIf4IJo6bRGtLa9IfSzdvWN7a699rBDQCA0dAE4SBY7hKryDCRmLNlJZ/CIEbYjmmlM0rz0ElKvP6nNfpLfYm2gdx/Dx2T8dDNSMr/rq2u1UyiUmHR3ndMnII6glCrUShPgyx5B7xTVRhRL8wRT1Q0v1RDvEczJ8/n8WLF7POOusoeeW+o5+34mMDrWSha2fFAke2ZVF1XXp7eunt6mX0qNGkszFh8iUPwZQdfCKglOg+1ROEeuOuMEnm8UGviSMt8Ros08MQU61YfVH5D5a8PsbZIPBNJc88aewERjePxFalJ8LjpKOlhR0lhCFZX7V89VPXYs4f+9HRJ2gENAI6B2GNewYkhBBXJMZGQg7P85WXoOQWmTZvGh3FdhVKEJe9iA/V3Oa1HXlNg+ADcwr6VBOXlNctZeyXEYLoM8PKnaBoiPrRB3kBhCCEsqN3HN59911VvSAEQV6vpJVtS7naV+QhRlgIiXgs5PN777zH8GEjaGhsjBWV1NBjPYjYoIckqRQfaODrCUKNPNR/jjWql5CDZZGE/pUOtTn3kQpJoqz6OIbN5LGTGd06CgcneQYSucclPCiZx5Kmkbqj9Ip8ivS1NAKDBwHtQVhT1zqxKp7vYToGXZUu3pn9NpKUiIPaidd29bUM/SUhgPerHC6Vc5AQhHoDv/Tv45t/oAchihPuPsyDIPRBdTI0TWbMmEFraysjR45UZEaVXqYcgv4JgwNcK8GhRpzkvq+88Ar5bAMbbrxhIo0shCBuWhUb+ZggfFgIYbkehKT39bI8CDUi0V9MqT/RiKSRleVg2ykqxaoiCROGjSEVxPLNOOmkL0YCUF1H6RpkOigxwIdHn64RGIQIaIKwpi16rWy/rtlSe6mdd+bMoOQWsNPOUjX3NaNYb+D7iyDVDGCfQU9c1v0N/JLfLyEINaKwdA6CuMyXVEEs04sQhqqKQnbzop4o2gdivFW7adfFcuwl0YEVtEZybcGjRpjeev0tOju62Ha7bUmlUwRhEmJIQgLK+Z8QhA8KDwhB+FACkXglluVd6Duvn5hSH3EQL4YREYQekWVR9nwymTxer8vkYWPZYPQkHFKx2lWSD9Ifqpp3QkstraCHSF9GIzCIENAEYU1bbElBELn+KMS3PEp+kdfeflU1Wqq1bbakMdAyFBA/yINQg0ARgCWSin0egPcRiKSRY40w1HbHSwiEXLHW3CnJSegnvhT6PulUmgULFtDT08O6667b5/FQZEO6Ig5wbfonRsr46sMt7fPbmfbGdDbdfFNahrRgSq+KJBMgPndJeKAeg6W8Af10DmpDXoKJKiZeTg7CEiGlesKl8hKMiHLKpRoE3HXvfWyy6RZsMGE9sp7N6FwrG46dTOgbqrdEnBNZ8xXUUYI4lUEfGgGNgEbgYyGgCcLHgms1eHFCEALTp6vayWszXqMalUllU3EZo5lW4jr1BGGp8IAqVIitRf3Ofukcg/cb9/rff5AHou+aylBZS92jfxKjbVr4nqdyDySkkM/nlwZXGeuBHf0JQv+rhdWQZ55+ljFjxzBx0sSkO2VMEeSQEEOt21M9CYp/l+QV9Ctj7O9N+KAchPrX9c9BqK2LvMYzQ4qtEbff8TcWzl/ETtvvxObrbULKs7CrERNGjGXdEZNIGY6qfrAt6Qwp61/LBUlmrQnCwB4mfbZGYBAioAnCGrboogAoynudlU6mvfsGoR0onQPVTwFw7BSq9cKHCB0tq8/Ch+UgLBU+qGkl1OUgfJgHoX5HXH+PSCoGpBpDtZSuNZOqW4xVQBAk0e/pp54hk82y+Wc2UxiqKoa6EEP/BEOZw1IkoP/3yRQ+iQehRjzq7+GaAX967p+8O2sWI/JD+MZhRxEVPOzAJm2nKRcrrDt8AhNHjscyk74OVtzsKWY5yYB0EsIa9peuh6sR+PQR0ATh01+DjzUC2d0Wqj28PectOsqLkcZ/UtlgyY5d6ttCA8uUMsalvQT9cxBqhvt9XoTlhBjkvGV5IPrnINRXMdQbvBpxSYoGFDkQkvC+3f4qIgj/eflVFncuVnkImWy6FmBIxiO9FGrehCV5F/1DDB+WgBgXdSx9jf5ehlq1xrLCGK4V8vsnb6fSW+BLex3AUHI0WXmqZZfAsAhNi1TFYNyIMYwbNR7TsFAhpij24GiC8LH+vPSLNQIagToENEFYnR8HVQ0Qi/iIiRFyUI5KzHjvLdo7F5FuSFP1q8o1LsZFRIBEw6DenV/zLC/xKMSu5/dXGNSqDhR1iP8pdcXYyIip7G/c668RirhSn9ciISd110g0g5ZcN4LFi9sVQRg2dJhKTlzqSFSHaz+LcyM+3tGfdCxpnZTYTg96ewosbFvIhAnjyWQzCdZJ/wVB3Aow/ViBUfkWpC22eBpC+ZlJaJl4kUtkRaoqw5bywzBeg8DwVYcLhV8SkqjNo/Z9LJMQUTUjjDAkJS000hZdhsf0WTMYO3YMb8yazuQx4xiSaSQTmERVqcZI4/q+Sl40pUV0ZDJu5HjGDp2gxmWJQlYSCpHn4+Oj9/Gw1q/WCGgE1j4ENEFYzdZU5ZPVOjIqWy3dGH0CA7wo4PU5r9DV09EnR1xvWOMkwyW5BUt5DWrGWxGI5YQg+vVSWFaIQRm+ZegcLImfv7/McSlCEQS8N/s9RQwmTJjwkVZhmdUQH3Lm+whCP10F23ZUFYXoMDQ1NTF8+PA+oypfBEZAYPukvBR2YOIbHr7tKqJg+w62n8KLwE97BGkft+qSiTJYga3IgWtVMUNT5YR80FgMCRkRE4RUEJL2AhaGRV7oeJeHHnuU4/7rSEY7Q6jrSt2XaFkjGZElRMTC9hzWH78Rw5tGEgWmIjuKPIYBjpl4FD4S0vpFGgGNgEZACyWtds9AH0GITZVq1qxkeKOAd+fPZm7ne1hObHzrmxr17e6TGS2VVFiXjyAJbP1bMdcbenVePyXFetd3HwnpRzL6k4hllTnWExbPdRVBaGpuYuSIWP9geceKJghx7oPJvHnz1P3Hjx/fRxCU8TUi5QGw/JSoUeNbLr5TVfg5XloRh4yTocfrIsoEBFGAHVhKOtmzPKp2CSN0IIyNcz1GNeMuctA170HWDQmNkJdL87n+gTv4/+y9B5wkV3U9fCp2mDybV7uSNq/CapUQAoQyGPHH2MYmGZtocMLkaGxAYBtjwGRsI2Hj8ANMxsaAQYAAK6K80kpabdLmNHk6Vfy+c1+9nuqa7pldabSspGr9VjPTocJ71XXPO/fccwfg4g8v+3UsHVwq3Sd1U6l0SkPmxo0R+KGAlrLZjTUnr0NPqUelnZKH9WhdKWebnPz1fATyEXjCjUDOIJxoU9osXOcvEYKYCoMQh8YOY9vO7YgKAcIoEM+A9EMHz6w+YBpQSACCBgVZDQKfNzO9FPR+0vsQDUFK55AFEdKZcIZ+DrVqVboqMijT7XGaBqHNvMw1QKBNMasotmzZgsnJSZx33nkt3SelCTYZgMhEYEZo2HX4TkMAlOsV4fpFeGEVRjGEUQAalTpK6IIRGghND55TByIbcTylsciKHEOD7EEorJEbqKqFv/36v+DBymG85cWvwLmFhfJ56hQ0QNBgQ49ZaKsOmEW7hGAiwGB5QMyU+rr6BVgoW+s8yXCifdXz48lH4EQfgRwgnGgzlOSrxeuAjZfgY3RyFJu33g/HtRBaIWzHloCg1f9N9qBNhUE6SEuAPcoUg2rClHR8zHgYJOaAnZ0UZbXcPsWgj2d0eARHjhzBunXrJM3A85ntMdcAQZo3JVbPdHO84IILpNwyrQ/gkDGIT8QV7KrsQqNQF01BP+ZhQdcCjBeHsW3PQ7hv030wJgy84qpXouAXRKfgW3wvg7NKMbRjEKwoQmiGGHEimc8CbHzmX6/F+Vc+E2efuhbz6wa8IGraTqeBlN6mZ6pyTJZtlqwiTN/A/N75WLV8JWzDRhjEcOm2mD/yEchHIB+BYxiBHCAcw2Adl7eGzEmHiEyVA5/wJrB910Oo1CelP4H0YpipQiFpytQUGSYH3WQS2gCELMtARaQ23Gm7r1hR7zrYpxmGThqEZnBMQMzO7TukeuHUU08V50S2eG7HiMw05lnAMBsLkX1d2j8bhjSKuuOOO3DGGWdg6dKlcjwELWKcZPrwnBD3Dz2It3/yHZgsTMBxXDzr3GfhovMuxl9/7YMYrQzDabhYWVyNv3/Tx9FT64UZmggNH1JzmvJNmBofRRW5foiu7gJumNiNf/vaf+ItL3wl3AkPfQvnY6JRgysjrQSc7aol+By7QMp0UCjKKpbIhBVaWDp/KU5eshxGbIl4kvsmCJkmCD0uF3a+k3wE8hF4vI1ADhBOpBmTrILKfQdmiDoa2LrrIRwa3o9imV0O2WlwZup+JqGiBPQ2GoSsmFFV5c0gMqTTYSbFkAYLikZvtVrOahSqlQrCIER/f3+LliINNmabmkcLEBgoSY4wzXDjjTdi4cKFOO200wQgsJdFJG2XI1QKddw1fi/e/Nm3YKw8Lue+vPcU1A5UMdI9gqDho8fpxendZ+JDr/1b9FR6YUcWAsODEQctvglpgMAxsaMQo944/uQf/hYr1q7BX/zWq+Dun4Tb04XxOIBJy2ndXTIBCRos6J9RTLYplOuGJxSHMVyzAH8ywPo167GwdxFcqN4c/JcDhNmurPz1fATyEZB7ejzbsisfp+M3Akn1AoWJzEXvOLwDew/vhe0SN/iIogAmjQ90+WCbigVqEKYF/OQMFHhQQVEH9GnsgVwUqkNgR6ZCV1rMoDHIahDSGgV14aljIHPA3gjZx9GkEx4tQOA5cv8EBLfeeisKhQI2btzYDKKWD6H8x8tV3F65C3/6j3+GydIEzJIJjACD5jx4fgOOaaMcdmHD/A147yvfh3K9DMQhArsh9akc73ZfMz43GdbwwS9+AofiBs46dQ1e9bSrsMjpQdUAvDhCgY6TyrqpY7tosgY0eWLlBEWObCAR+jGKZglGYOKsNWeh3+1tshBpMHf8Lu58T/kI5CPweBuBHCCcKDOmxYlMMdgxDlWO4P6d9yO0aIvIlawBKtEjyt5nWN1LwO+Q/59avbaWOU5nEKbKJbMiRqVjEGOEGdwap5dSZhkEEucU0BEcMNWQDfbHBSCQ6YgiAQl33nknJiYmRIfAvykKdEILpbCISqmO26q347Wf/2NUulS3TLvmonekGxevuRgv+53fRU+hB8aYgcXOYriBg8jw4Vk18UuI6JeAGGYUw2SKxwQCFfJxoDGGv/36NVi5YhVeduXz0D8ewTEd1MQXASjUQ/gCENUF0k6DYIbKIyswAianYDsOKpNVFOwSYh9Y2LMQq5esQKlQVtcG39w0yEg8LnIR44lyJ8iPIx+BE2YEcoDwK5oKbdojoTjle8BAUg0ruH/3Zoz6I2KrzKoCO7JhxTZAQVriKdReHzAzgODpsmZeMQeylmyyCc2VJXeRNP1pBmqJKSlWQdsppcrnNBsh3kph2jiJi1ppiwjLtjE6OorAj9Db2ydUfqPRmFaVITX8jzJozUaOkZGh8LNRb2D/gf0YHhrGmRs2NEtIbceSigQDJWyq3IgXfeEP4Ls1wI6EGXj1spfhjb/+VphhUqUQ6woQrReIUIhC1OwYdStCyQPcegD0lLCzMgSKJMulEn540//h2ZdeDtQ8lGITLuiKmfgvSj8GxbB00iBkeznoS1q9XxkxLV+8HCcPngondGFpl0VOiVhLh3RR+BV9E/Ld5iOQj8CJOgI5QDhRZibpuOdHIbbu2YIDY/sQFRRtzBWfEyc3djOSXHM6NZCmjHWjnpmEjBogZKnm5jZF8zZzFcJMGgSmOTRASO9DB+xDhw6hWvVEoMjVOjUAWZHiXNDgswGEIKA4UlUYVCoV8UM46aSTJNUglRWxr8SKcRn3Td6EF37hDxB2MejWYIYO/v3F1+Cs/nOEJUinUPTvojGIIwEHrDRwg0hYoEOmh//95S9QOTCEF1/1G6iFEfq7uuFXanANS0yRZBvSzZHsQdg2xdAEDR20CWnGgaWaG1afhV67D07EFtGqKyivJUIEXhP5Ix+BfATyEUiPQA4QTojrQfEJ/P/BkcPYsXcbGmZdGjHFRqSaGkW2OPIZFrn96W6JOqA2O/nNoA/I+hxMAxOkodtoEJr7kDSGGrh2QEUDhBbgkjQ1YuDbv38/wtDAihUrmvqDdsK5o0kzzDR9swGEMPSERWGKgzoEljrSTXFwcFDOq+pNwi7YQFTC5smb8OIvvA5R0UDoVdHrDuB7f/otDDTmNe2t9fmmV/pmHMMzabtMr4MIk1aAb9zxM1x/20142rI1+JPf/F1MVn1JdRRtB7VKFa7jJFmc5LqIySBMaRDSAERAwAzsgnpdVIzosrpx3trzEXtoMjYKILAqJe/mdELcCvKDyEfgBBqBHCAc18lQN2NZnyfVCKrPglohstfCPVs2oeZXEdo+QpPPcHVnwIwt8D9VPtCeQVD6gKlWz231A6kUwyNhEHSVxEwahHSKIR00+VlqDnbt2o3u7l4sWbK0CRAeiQZhtqmbDSDEXJnHSgPB47r99tvR19eHVatWSQCtB1XpsWCADMKNePG1f4jYBcw4gFUr4oZ3/Bhlr4ykkWbT56CVQSA4oD6AMxni1p2bce3P/gtuXxlve95LsaThwu3qa/pa0DSKYEV3lFTOmjzOVg1C+u+ZUwyxcni0LQSVQKyYlw8uF7Fqsy8E+2w8ynTObHORv56PQD4Cj78RyAHCcZyzpJGwujkTIJBFNmPU/38lu2WZ2HlwJ/Yd3q+oX6YSTAUoGDzJHvA/SgO0dKC9gHA6QGhqA7R/ApmIVLXDdAGh2aJBSNPnRwsQlJfClGaBDAFr8GmItGPHDsyfvwjz5y+QwMztM0jP9piNUZgNEGS3H8eBBE6tgbjppptEE7Eh0SHQx8B0qQco4J6J/8OLPv8HiFwLhtdAyR/Aze/6KVxvqilSOwFhkb0abKBh0Q65gbu33Y+v3fIT/OaLfhsbyvPRNeojKpSUU2ICH+XSoH5Alv8M3lPdINPshP49LWBsdwysbIjiAAWzCMMzcfa6c1C0yrDZnyEy8rLH2S68/PV8BJ6kI5ADhOM48VxD6nwvS9P48EhzOxBB4gPb74dP2bmUIyZtFFsaMBkwk/RCJ3aADEI6MGd/5z51vrndql1S04bVkmLQAKKZiuggUGymHJqlkq2pEH6elQJ79uzBypVr4Loq10+QMFtt/mzgQMVSvZY+ukk1JE+iHAz5WVouUx/x9Kc/XcaQPS/oMRAbBdw98XO88JrXIGIfjIaHsj+AW951PRzfblL86WNogqqggUbJwN0Pb0WvXUSPU8BYUMeSFSeLIVKXb8A3DWEZeHWQS2o+aHwk+28tc9R9K/Q+5PiTD7UTMkZmKHoK23AQ1SLM61mAM1dsEO0EnRapFzHtPMVwdFdN/q58BJ48I5ADhOM41xogiGKci0KmhtmIyfRw365NGKuPSpkaGQZWEag8f1JtkACFrM+BDsrNnwlAaAbrlOtiM8B3YBD060xlpHUJWYYhqZOQkWsHVAT6ZBgEihC5HQIEVjEsW3YK2CKaVD4p9dkYhMcGIKjWzTrQ7t69G5s3b8bll18uTEIYBhJUCRDurFyP3/7Cq9haAUgAwq3vvB5u4M6oAfCiSWyu7sfnvv4lPPeCS/Drp1+IUmijEocwLAtxEMKgRoHQMQEJMq40NJLihRhhwiTp4N+SXiDzMEP6gVsIzQABPGkBbfgGTN/C2lPWYXHvEpiRAoO5BOE43gjyXeUj8DgZgRwgHMeJagcQmOPeP7YXD+y+H0aR9fGqrFGlFKZod4nz5lTmuJ04ULEOUymGNEhIB3wjAyIEAKg3q3RGkp/W+zimFIMGDQlA0MegV+lkDbhdz1O5fwIHtlzONp9qNy2zgYRjZRDEeMpUTorM/RMgbNp0L84552wsWLAQgeehaJcRGQ7urF6PF1z7SoROCHgBSl4/bnnXz1CUvgsZj4Lkbwb9A9W9+OtvXItDTozXXvVCPLO4HEviboyHISquiciM4LAhl7T11goVwAxjWEJfAL6l9CmSkkrEiul9EiBMO4aUcJG9HkLLR+RHYrlshw563V6sP+V0lMyy2DPnVY7H8UaQ7yofgcfJCOQA4ThOFG/yQRSKEQ5v9mEUwjc8bNpxD0bqQzAdVitoj4JmtwNZRUpwTIJ32iipJfDr1MQsJkZZI6WmRkGZDwhYSJc5TgcIU1UOev/pNAS3LxUXKQ2CVAo0PBjsbyCaA1V3nwU6zenQIs45nJ/2AELpPGjaxI6ON99yC05bvx5LT1qKKKIGATBLBdx06Ca85trXYbJ3HKgCA2Pz8P0P/i/KjX4UfaYCQnhmCCeMscAqY6RexdhAEf/49c/jrgfvxkt+56U4e/laLDJ6wB5OYWwgALs+suW0JyyAlrBKCUMCDkS8mpSMtEsfyDnJ6woktNMoSIMu1TgcIdgbwkDsxVi37DQs618uvgixOSVTbOn72OwuOocTkW8qH4F8BB4XI5ADhOM4TSHp7JRinCVme47sxvYD22CUAT9owKVMPm2hrIO2ThU0TY5aezJM6QOUnXLLNtJphjYaBJ3/76QxyGoQmOYQliFltKSHUW3DUKZOqfMgg0C2YGxsTFbrZAw6ggP1yTlvUdyJYdDPU6xIR8UlS5Zg2bJlMEn9xw2Ue/tw6+478LpPvRaVReOojdVwSu1UfOOvvomi363Yl9gHQz49E7t6e3FkchLjkYev/uhb6Oou47mXXIl5bg9qRyZQsApSbcJkEgN2bLQaIWVTCNQgyC46phJUN8e0JkHPhzxHgUNsIjR9+Kav3ucb6HP6sXHV2bBREJFsylxRfTwt6ci7RR/HO0W+q3wETowRyAHCcZwHyRXTLjnmqhFoRHXct/U+jDVGhLouFBzAa+8t0FxtZ/QB0wSJqT4KnfQBOsWQZR+m9jHlYsj3ZDUIGiCkAUAriDBUbjvDIFSrVTz00ENYvHgx5s+fP63XQ+tUHF+AoIMrKyxKpRIWLVoE+iQ4lgXX6ga6bewItqNSGlWRc2+M9eX10mK5ZoeA4cENfBTn92ArJvDhj30E73zRazCwdAk8agsqdaDioWgqPwuGfK05kPqFVPBvZQGUMZYGCGmQM/U+xSK0YxDkc2KjwO6SgbSWpu7CMV1E1Rirlq7BSfOXJWklNQNNLJADhON4d8h3lY/AiTcCOUA4jnMSRpFQ7EEYwLAMHBo7hG27HkLo+OKjb9kWrFBR8+ng2wzckkJQuoRmWiAjQpyt0ZKIHGcRMqoV8dQ+sikGtY2ZujWaTYCgj5UMAnP9u3btEnAwMDDQch7Tp+H4AISWXH4UiQ6Bj+XLl8vKnsR8F3oRBgbqbh1VZxwsjyw3inCqNkzXRmD60rUxMD0M9UX4q69dC3+kgt/fcDHOPuupCE2H7RsQ1phbUBUbUrEg3ggqJLdLDahjU909O7MH2mKrcymkpBhIJFDJYKguEExzhbUY3U43zli1QbQWuo4hBwjH8aaQ7yofgRN4BHKAcBwnhzfpgHX/rImPPdz9wF2ox3VEVgjQIZHdDePWlbc+vCmdQCtAmP466eRWm+Q0mFAyxtZ9ZFMIWYAwjWlI0t5thZJJiiHLIND/gBUMLCM8+eSTZZWeBjrZaVD7fGxK7zrm8gFxeWSVxRlnnIGqPynCUdt35Z+022aLRzOAxR4NoYkxeJgHG0GjiuHeEJ/68ddw6wP3YOOSFXj3i1+DuMrPOTAIChnoIzbfikWMyoAthE+srJo7sQNZBmE62zCVYmi7jYRVUntUQEJ6bQQQBmTVqWuwrP9kkabKnOhW3jmDcBzvDvmu8hE48UYgBwjHeU6YZqDt7t7hPdi+ZxvATn204U2aE1niQdC+fFCtNacDiJY0g4CDVg1CWmPwSHwOsmwF2YVmMMmwHZ00CAxc1B8cPHgQq1evbnZw7FSZ8FgDBCFJ2nRI3L59O3bu3InLLrsMZhGoxJMiHLUCC2bI8lN+UtH0rDwYMWMsCW141QkcGADe+8VPoc8u4l0v/yOUDBfhRCyVA8puMUIcKfts9Z9ABDE6ndcQ7wAAIABJREFU1sfTLsBnNQjTfRCY4piZZWCdSrMCQkSZTD1EwloVjALOW/1U2OwDYZhi+yzXTA4QjvPdId9dPgIn1gjkAOF4zof4HsTw4OHerZtQCSbgG1yRqi6AjD2WiP9aUwwtK/iMBkGvwpur8TYahE4Mgv5MVmOQ9TnI6hwk/TBLpUQ7BoEAYWhoCGvWrJlm5nQiMAg8TzZs2rp1Ky666CJxrWTagIBODK4iA05kSxtmBm02YKqWHJi1OnZs34qB1ctxx/2b8NR1Z6EPJRw+PIwF/fPF00AYAoICASVKc6C8E0n7zyxAzKYYjplBSPVraAIRkM0KYFpMB5k4bcGZWDiPuotAHBblmssBwvG8O+T7ykfghBuBHCAczymR6rUYw9Uh3LfjPhjFGL6oEhlwlTmS4g/aCxVV6WHnFINQx7IabdUHpAO8Ehi2biOrMZgpxaBYDNWsqTOQma5BoFvikSNHUKvVpIujfnSqZHisGISZcvncJ4+RPRnoprhw3kJ41Toadg2eVZfzZrtkM6R7Ig2uQkw6IX5810247vqf4ANvfDv64wJqlQb80MDKJStw8PA+ZZutYEGzS2PSjUmeVcLBmVMM7TQKU6yDAhrtWBEFRNS+xZUxCfqmZaDuNdhYQsyg5keLsG7VepimAYsmXTlAOJ53hnxf+QickCOQA4TjMi1KSEZq2gvr2Lp/J/aNHJDGP+ytRO6AwIBtfqfR+S1gQZUXKivmJECnflc39ekeBdltZj0KssFaGz3rz+mg0twO95HROaRBjeozkdFBaIMFvbOkvbVss02jIJ2qmEISU5UVnaYsTc+3e0/S3aB1ZZzuhGgAoyOj+OVtv8SZZ56JpWwmFcdoWBQh+ij4Biy7gAopeMtE4Ndw3Z6b8JXvfwfFqIi/eu3bMBAUUSx2oR748Gp1OCVHWCNtZpSctgIKEQWIKtnQAgDEEUmzDoqtSJskZX/XuoJOIIMMhLyH+0v5GohY1gRCP0Qp7sK6U9ZioLsfNmwYiXNS0jLkMSg6PS5fvBN6J8o4TSltWGmiWozzJ3FbHX4Qsu0m/Jgt31l5YiLyY7hWWUzT8kc+Ao/1COQAYS5HWN/9W7apwQFv0nVMNkZx97bNaLDG3jIQSyMmwInpHaDcEjuL/6YEhi0BOV3JQJOijA/CdJ8D1ckvnf9vZRkSL8XE52BaCiLl8tiORZCPRa3noTsmTgMjybFnp6GdNqGTXqGJOWbpxdAJQOjnmdunF8INN9wgQspTV69AZKvUAkWJJhfpvElbBmqhhwpqePMX/wJBzcMbXvqnOG1wFUqeA0viOasaAkQ0hprRw0AF72zaYIodoFFSa4VC+nz5OWoZOrEHMhXiv9F5H5L2iCMsHlyMtYvXwIkdciXCFTH9wa3T1SIPSXN0s5D7BK8QZY0ljiE+EHGwCybq1Kl4h3Dbrs24ededCMMYLgwMxr144bNeBKNqo6ene44OJt9MPgKdRyAHCHN5dcwCEELUcGB0D+7fsQ1GyUXsWHLzZri2I+oP6Infmh7QQED/zKYHWvQJuvywQxVDE1Rkyhyn7SPpAzHFIKhl5xSDwD4RrU6J6W0wjaEBgn4+ncZgICZgyIKL9FQcb4CQDtDXXXedlDmuWrsa7GFU9GJ4ZoyKEyNsNDBoFVA1QzxsTODD13wEv/PcF+DsFRswgB5Ekx7v9CI8ZfmjLNHTLEVykunV/jQGIZVukOA+iwBR2oW3EVzqfajPZ1iK9D4UhIEVmLjg9AtQMIqwYgUQyCDQezEHCHN5o1DMAYGX6I5Yhlr3YbgufCNCJW5gV3Ubnve+X8fhwTFhk/pGevD2q96GV13xGrhxEV38/szlIeXbykegzQjkAGEuL4tZAEIjmsR92+/BhMfSRtrsqv4HZBAkxZAyFmrHIkgNQ0qDwEPPsgOy9s94FEwHEdNbQqcBgG4UlQ3S+m9RSrQBGU0QkwCE9DapQaDHQE9Pj/gg6EcnkHC8AEJ25c7xpJlTd3c35s0bhGtasNim2gjRcAKEDvDw/j244eYb8dzfeD5qdQ/dbpekGFANUbAcWdHTtZDeFgLoZmumJE5GU0LFdJWCrDFTJkh63FoBRnsNQxOYkD+YaR8GrbyTkselq7B88GRYUnmhAIIQJzmDMId3ClW7opYGCTPV8IGChYYRYDgYw8s++kLcHt6OcXNSmna9bM3v4qMv+hhKQQ9s00HJVo6r+SMfgcdyBHKAMJejOwNA4AputD6MOx78JYrlMhpRAD8KYTsOLBEOpnQFnUSKbQSG04O/EjymAUZWg9Bu9d8JIPCz00SM3H4HBkFpCqanGChO3Lt3r7goEiSkAcLRgoHHMsXAc5QccBDg4Ycflt9PWXGq0MA0QSoEnnTdvMc7jE//95ewyO7Cu57/ciAswbaK0vAoCpQRFjUDgaEBAhtvqeDftoQxoZnbiRCVwFABhGawT6VR9GfSKYbO+2jPIOh9kPFgOWe31Y0zV21EwSw0Ba9tL+u5/N486balmnqzvFW+LT47e9JEtYpJo4G//+bH8dlffBSNBR4agYENhTX45pu+gZXxGsC00LCqcG1afD82PiFPuunIT7jjCOQAYS4vjsydVK0E1eqMgrCHD+/AntHdilpPctNcS/A2IbT8DA6JzdfauCC2gIQ2GoRpIsUOXgrNfcitZ4ZSyzYahJZjlxRrK0hhieOBAwekxwEBQlbXkNUHHC1oSE/fbCLF7Opb7yMbVPfs2SPVFsvWr8Z47GOAFslRAwcLdbzqM1ej0e3iBWc/E68+99mwwjLJeTkfue0TUBn0SCC0CKUJVKfgrp/PahD084KzkhRDehtZ1iMLELLpBgEBRmc7ZxEwWhHbSaBolrFm2ToMdg0mYkVxcsr5g7m8T2jNiK4mimP48QQqZhXf2vQ/eN8X34/hkw4imAD6J+bja2/7Kp457xmgZ3dcilA1J1FEF9iWPX/kI/BYjkAOEOZydDP3UbXCixBFysjmji13oGJMtooQGVMSRfK0lX6blAMD70xAQtILbVIMaRChnRT1dtQGUx0cU2WM7YSMEvxn0DG0s3MeHh7G4cOHccoppzRdFNPncbwAQjp4ptmRZr4+jrFt2zbxQzj30meg4RpYFdiI7QDXjz6Iv/vyF/D0M87DC5/yHPSYBRR9WzIIgVQKiIOUAj/iFaE7KLaWIGYBQ1aD0AIG2lgtZ9mGrAYh+zrnVosUs+BCgYcYsRUgDkwp4Tx50alYNm85bFiwBd+oTqK5THGubhbqeuDFIlqE2EfVGMODow/i+e/7bYzNr6HWW0Fp/yA++Xufw0vP+C10B5ZcWzUrRg0+etm2O1chzNWE5NvpMAI5QJjLS6NDioEgYWx8DPfu3IRGwRO2QAVRJfyTj2WqF9qBBXVLmfIwkL9ZE5VyXtQahJlARFboqIdApwfoxDiTz4HWIKT3kd6GBgjp12mxTJBAF0V2cky/v90UPFYMQjp4aoCQBiccT/aLuPfee/GsK58lJK5vNnAE4xgKJnHzz/4PL7r8+eh2ejBe91EWJihCwFoErSkJWfUA2JGBhhXIa1mWQoMA/gwz+oCWIJ5kq7OVEDNpEKYBBOW2IMOst92iczBi0UzQBdqKXXTZPThr9QY4MZUIySpVxJa5LG5ObhfiqqkAFwsXGqjjkL8PV7z9SmxzdwLlGEbDxMvWvRoff+mnMQ9FoODDRwMxSjIv8q3Pp2NOpiPfSOcRyAHCHF4dTXyQ1JrzZiw3ZgPY8fB27J/YD8/1VEohpTnQKQf1ndfUvPprmsZALQc7N2uS1X/nXgzKrHl6BUILoMiwFC0AguAmmiqTbMcwyHFnjoEWyyMjI1i7dq1UMGS3ebwYBB0kZX/KrkF5FnHVH8WwTBOHDh/Grbf9Es+59DJEURWfu/47eHj0AK7+gzdgsGpiYqyKUv98NAJaJdelDJHhV8yIDANWZMIKlPjMM9lBsTX/nz4GXiozMQiy9s9UMRxLiqH53iTF0IlB4DkEfoiCU0JYjXHBWU9BIbYlGEmDMPECzyPSnNwulOu2PCIrxpgxjj/45Kvxvzt+iGhxBL9WxfrRZbjuY7diQWMRQrcB3xlCiAaKWASn3i0W7VqCkHh0Cl4Q8M+L8XGD55QbhG5apoq0+a1gio71Myy55f1i6trLr8I5uQqPaiM5QDiqYTq6NzFMKJfBxMee6QUzRj1q4O6tm9AIq4hNNu3p4HQ4g02yDuDCEGR6Laj7ttpmooue0UvByngUNI9H94MQ8rKVmcjqHLSPgjwvscOYlm/napxsAV9jJ0f+6+rqEiGg47gCFDzPa4Ig/s2VbbFYRL1WazFQ0sfIz6YBRnpmuP1CoQBWTPA9+r38W7MFtm3L69wvhfqsJoFtwQgNFGGhYFrYvnMnbrr9lzjrqvNx7Q3/hs03b8YFK8/H637zVShHBUW7WzFikz0NlNxMgwx9PHoVH1GCnjgoynPK5SixWpZXmj0SWoBDIkbUHRtagE2yk+Y+UuxAe6Ziug9C6/bIgiQNowhyIgPLFpyEk+efAhcOIi+C5Uq1fv6YgxGIfAB10RuiXqrgbf/9bvzT7V9A3BvDPRhgZWUBvvYX/4HlSy4Ub4Tf/8hrsT24A0Z9FK6xGF9599ewrHAyCrDheRFC24NpR9Jtw43LMBq8ppPa1Dk43sduEzFqQQVVq466EcKXug4LvSjAxwgiOo2M2TipbxX8MILNVumGcnmh8LcpjckRw2M2RTlAmMOh5c1ciEMNEMQMJcCYN467HrgHdtFEFKuAOI0Z0C6I2uY2U8mgP5O2Us6u3nkq6gs0cz8HDRA06Mgei8W7y4xOiVNMh95Gelvp7TFIM2gxcPMhgZnx1bIFDDBg6zQJf/J113VVw6BkLHRw5+s0MuJn+E9vS0+hzW2yiVICEHSw1GPHz2rQIr9DNSvyWcboByi7BdENjI6P4/s//hGspUX8593fQaHm4C/++N1YZM1HgZY1IRtuqX6MtCVuJwrUAZgAgSmmdsFf5f8TkJCqckjrIQgf2BY6nTbQ22ruo40PQpYpYAOJbOph6u8pgCB33QjocrqwcfVGmKEBxyg8Vo015/Db9/jZ1ERURz32EFgN/HTHj/GGL74BQ/4QrD4LfZV+fOoPP4YXnPSbiCIXMCfxzA8+G/fEd8OMIwzUluKn7/oeVvWeATu0YNCpnRWpLlfhnggXjdBWC+4TvMiBMX4orOOzP/g4PvXDv0Ojq4oeuw+VQz7cUjf8YoSXLf5tfPSP/haFQkkajIlvBDVbwtImKCFZMD1+roDHz5HmAGEO50ooZgEICtJSosb6+Z2HHsauQ7thMvUeq9VsJ4BgclmR1hRkNAbKB2G6mZL+jAYI2eCf/psAofM+aLKrbHHSx9jyflW93dxG+nz0cGY/y9U9g7P+F5Cej6LmWJBp4Kp/cnJSVv5hECAKKfBUgY2gYeHChQIK+Do1DdkHP79kyRLZB0ECKyf4fj7PbWiGore3V/ZrhxHiMEQQh0LjW64jAGNisoJbbr0F42YVX7v52/jgO67G0vISFAOXCWOZY+mfQKKIAtSEEdDH06IPSABCO2pfrpHEhjkd9LM+CAQiaQ1CGmzwdy1SzLIHrVqG6RqEVoCgylklTRbFsGMHG9eehZJVhmPkNfdzeJtAHNdR8Uaw1d+Fl3/4FTgQPozICFBulPDSK16FN1z151gQLkLsxXCcMVzw/ktwd/cDQCNC39By3PaBn6CrrwfdRi8KDQdRNYbdayC2uEQJFIupnFXm8rDnfFu81sZDH9+98xv4+m1fxERxGAHFsnYZN96xCSjY+NBFV+P1l/0BXIdlt+oaVaJupgiZguDvObs155OTbDAHCHM4sry9Sl1zokEIggYCJ8Q92+5Fw/BQq1fET302gJAFD+ngPhODcKwphiyI0Mc1O4PQ2u+BAa1er0tQJhDQlsUMyAzqDP7UILCTIwO92q/yHOBDlz7y/Qz8bJgk3399kRqGpCbobqgBwwMPPCAsQvrBz69cubIJKNi6uVKpyPu4L54ff3J/BAldThH7du/GkeFD8O0YPlMOjomtW7ahNjaJc84/C848F0u6l+DQnoMomSW4pgOLrEfBgmFbcG0FPtIBPh3Ap6UYUu89KgaBAsKMTXIWiMzmg6A4ilYGQY+jAgXKEEkDBgJcO7KxcukKLOpbrMod81XaHN4pQuzzDuD3P/0nuGn8ZnjmELp8B71+N5551vNQsAeBuIai4cINh/HVh/8LB6wx+T64Xi9+Z/VvokiGb8zC23/nz3FKcTkKRZdua4gMP7FgYprwxC6D5JUXRA0Y7BkGA/XiGPYZu/HGa9+Me7dswwVnXYJPv+TjWGjOV5oN9quwVTWH/CGlxPzklOh5Dicp35QsdrPqsHxYHvEItIoUSR+HqMd13LL5l/DtQKgxCteOVYNwTAAhSTHoz/CnXkEzgDO/H3lhi2sjV9wCLjRbEZkIA0X/M+BzFc6AogFA6AcouEUsXbq0CQhYGqi3obfDtALfQ4DA1/n5vr6+RJeg9AkM2PRFkOMi1U/2IFSrclZD8Nj5T2/zWCaH29P/uE1ug+fDfSlTpBhB4EvTpdFwAjU3xj07t+CrX/oqnn76uXjuZVdi4ZIFMPwYe7btVp7DSUfOQISJEdauWS3b4rkTBHE/HDcCIdFf2Mw1TzE2+nj0WPlhAMd1UK1W5XP668hxkOMNfJiu0mbwNc0upEGINHOa0c55OkBoTWPwdpuUaSYlmlZoYWHPQqxctgqGb6LgqhRR/nj0I8Bs+3/d+3287t/ejCO9uwE2AwsAxyPYLIpuCW4doWGit+5g0qnDtGK+DY0CYAUF2IGPxf4i/Pvbv4ynDDwNRXZ+ky/94yc5L9U/8SScWq8wc9VSA39x/bvwxZ9dg6XWIH7y/uvRYy2QyhqmTszQhGElrIhBgMCrVnqsPvpJybfQdgRygPBYXBhJfiw2AhyuHsY92+9D4IZwaNsbzlBh0EGkOBtAaKH4pRTflGCjc/cMVgxA/CkBLFbBWQdNHZS1kLCn3Iuucrd8nqWJ/KfTAdyuY9ny+qJFi5oBi8ZCoh1I9AZyTAycpMCjSOyL582bhwULFigAwP4TKf2BDnz6XCSkpqpB0oDnaKdM6MhUOod/K4GkuqHUFesOI26gUQiw6eA2fOSaz6BkFPCsDU/Ds59yMfr6B1B0CmhUagLu2NgoCH00wkBSE729PbJNgo4tW7aIRkI/uL96UMPy5YqxYMCfmJhoHoOABNsSgMDx0wJKzSDJmFsG/JA9HRTI0EBBAwJ5bgaRogIcswME+jhIvwYRKVIsAgyUB3DaitNhxTYKVg4Qjva6m+19FYzh23d/C6//lzegsrgmTb0IPuX6SmgzqwFERRdutSBzUmI3x3odI70WHMtFEFfRP9GN7/zV93CGuxE96FHYQH9vHge2FUyIVOIKikEPGiHwk5Fb8FvXXom4NIlnLHkKXrnglXjplS9HaMSihSmaJWmcxvtKYjSS6BRP7FTKbNfDifx6DhDmenb0l1TK0wJsO7gNu0f3wrN9ZTwTzC1AyLIRlsk+CUbLSlOv1BmgZEUem1LOxxUvc/58aAqe7104bxHmz1vQXM0zfcDnCQC4Ddu0EIVxk+LXq1Gd+2egYyDTq35+jr4CBBS6DwNFirq6IB1Q9QpaqjFS7pKPZJo0QNLBlMeTzu9HVgF+owHXClG36vjEN76Aux7eghde9VvoHgqwwOrD6edeAJcVEV4DcRTAZkpBvAuUwRCZd8/3ZXy0zoI/GfAJFsggFEuFZnWFHnOeO4/FKbgCEJhCGRgYkG3oh7yHzbxcS8ZKj2mLRiHTzbG9DuFoAIIqNyNI4ALWDEyUjDLOXn+2NG/S3hmPZB7yz7SOwBhq+OZd38Rf/tM7UempIC6RqVPNlwzDgx356IoLGHZ92EGEyX4fceChHLCLaIx+dMGYABZ4i/Hv7/8SNsw/C0UkAE7KaVRl0Ynuk8Crshoyv+CgEfu4cd+NePdX344DwR5Uj9SxMFyMF5/3IrztJW+We2c5LsA1iy3VC7nH52P77coBwlyPrwYIrCuHj3u2b8JEPIFqXIMVW3Aj1cWwk0hRiwPbCQSVxkAVOOttpI2SJCBGzMopypupAf2PAIBgYNWqVSgwj57k+xlsmApgEOdP6bLIOn7Tbum4KCvt5LhFLER33qQjY7r0MK0L4Pt12oAMAtMNTDEo+lylDvge3Qq6yR5IRUfCliYrKj0exzJdrIRQVQJJ3TlvnjQ2IrMANsuyYdLtsD6Oht3Atd/7CvpPWYqLz346HvzhTeg3erDx4ktRcBx4Xg0Fm1R/0hgp8S8Am26xjJKLbt9vVmAEYajYmoIFz1eVGwQXej4IuuRfo4EgUgwE9Ro8T4orx8fH5TmCB6aSXc5NIr4UNiERFEraISbVqno9PFKAwC6CahuRLM5sXqeehfPPPA9FkwV1pLCfKPVkzS9py+WkJJoq5CRJoczl1v5zR3tN6k+HZAqiBmBV0IhrqJus9e9N5HZ12GLR3YNxcwJHsA1Pe8cVqPbUYddNDITz8K2/+AJO7l4PMypgMJ4Po2agWHaEgiBtr8SJR7GqTp1OAg+bZ68/rfknPR46ILPuRb02NVLCFyYCbfpqUD2j+EylWVJfQ9XeXGTOsYm4HsB0CWhCRI0IXhRgtFzBe7/7QVx727VYdnAZ/vcj38PCnvkohgWUzbKqEpMb0hQWOto5yN93bCOQA4RjG68Z3930RxP/fNqa+PjlQ7ejFlRRcEyEPuvzlS9AJ4DQ4i+QBGWCABXUGN+Yp1TBmgGD3xJl50ylvyPaAbII7JyoywBLxZIofxm8lyxeAsdU6Yd00E0fjxmzA2Er05EGCGKClAIpLa/pVX88FfgZKKlBIHtAFiHNHOjj0IFtKsUwdbNJ7gXHZNTDkXGCAOMFwLMMdHkGnACoGqzpdxFVq4i6QhyqHsY1n/s8XvI7L8VJp5yKODKEYfm/665HV6GEC59xEaKQAscpEV+rKDG5USbBOVutwHxyuhuj0ihOBXP5NN+TCu5MQ7BvBcdCmAMjAks4C8WCjJ/caBNNCOfaDxtwCgQxCojwc2Qi9FjKeEtTySkAkdUg0M5BqRAiFSPDCAWjgAU987Fq2Wo6RJzwqvij+SpHsY+KV0GxUAStL1mtweuZVtOeUZGyZIp0XbgwQ4IiC/UwQGyGcIicYmpMumbclZLetnoVJRo70dqRg7Lh00dRsTbiYJAwCIkXQDRqwu8OcNg+hA3v3IjR+SNABTi5egq+f/X3sLK0XI5TFTXzak88NpK8nElAlwTrtgfL2O1xmgPUjQkcMIewZWIXKpUaCqGFHhTogIFxsyEdJsuRgzg0UHdMFAwLXUENE2EDgVlE7BbR6/s4f8GZ6HGWSSO6H+z9LoxCBVEwgKV2N85fcDpMp4Tbx+/Bf+/8PjbfsBmfeNUnsbi0BGONEcRWiG63H6ZvwTcjPGRtxoXvPw/LR5fjy+/7KlbOX4UiSihEyXUoHeUVwtF9Y45m/vP3HNsI5ADh2MZrxnc3Dcy4ojNCTKKGW+6/HaYdwwh9adUcp2r7pwXWNoE3TV0TGXBlz7sMb/6ksKkt4IqcP0899VQBB1xBsGKgVCoJK8BtaAOhKAzhtAEp+ljkCxdTAT0dQDRBhOxhymtBPpMpx+RNVwMbBijqGJiHZxtl7WWQ1Qe0ACf2ekiN9iNhEJjYDQ0gTPoIcLXS29UNL/RQ8Ro47I7jU1/6LLbf/RCufvNf4pSFyxXDExv4+c9/DssycdFFFyWMR2IkNEvr5jT9z8NnmauuEBBokAnS0iipjUcB38txI8tQrVflJx8s42Tw55yTZRD2p2iLVkEzMRpA6OELk14gnQCCWP4mAEG7OloJi9BX6hMdgo3iEwMg1AMYBRMNowELrvISUJIYRLYP3wiVhoeCOAJlw0CdAZ0Am8GXy38q6Wd8KDOs5j9xEpta8c52y2HcC4MqAifGEYzitDedhvqyGgIvwLwD8/HTj/0c6531CaRovzX93UnLEprZT0mRRZioDiMoBvjoNz+Cf/nZv2K8NAm77KBsFlAbqcPpKmDc8QHXQMnnit/GJOU7YR0lL4DtA47bg7F6Faea/fiPN16Ds5dcjuFGFee/7RyMl/dj8eBq1A+N4xsf+jo+9Im/xw1HbsZwYT8WNhbipx+8HkuKS/C5//4MfnDPd/Hrz3sezl/yVIyE47j6n/8SO4wtWLZvOa77xE/Qa/fBDgvSZVQbJLEDKc8pb1o12xX1yF/PAcIjH7tpn8wChAOVI9i0czPsAlu6enBMB1Gycj9aBoGrQlLNEoQNU7wBRoZGJGAwSDAglctlCcYnnXSSvM4KAx1gtKqefzOYSB6e7WXbsBgaJJBBmM1JkceSBhUt6YHEC0KfIwOTDl66IkGLHvU2tKCwCZoyACG9r6OZMoq96laEnkYMK4pRcblgNFCsR/DrDYyUDbz3G5/Apq334fKNT8efPP8V6I1cOD4jRYQbb74ZXuDjoosvajFeygZZfSzpFXkaCIjNcop9yIIE1a0xSVsk4INjpEGAOEKK9kFpNrRDJMs3yRJxv7ZrwrRNAWA6VTRtP4mZUpbhUH+3AQi8PnwDJbuEc9adA+eJABB4qsRZFuA7oayMzdARXRABEV+WfhpJMoXMjWdEcCj49WIUqqa4b2JmAkGqW5T1VPJIJcrl14j1iDNcxVaECeOgOBocwQie+roL4S1tIIwidA914X8+9gOcX3iKqPo7PshKScohjVV0WoAGbh4mMYbf+puX4pbh22H0BogbnkpRdRlACbADbgOIJgx0jQGlLhOH3RBxGcCkIvT4dqtYQt+ogX954+dx4dKrMOrX8JR3nIdK6RDKBRvdyxbj8M7DiMNexPYEjO4QA/t7cMPf3QKr5uKPPvZabLbuwog1BCd00R/PR1iPUfEn8blXfQo4037pAAAgAElEQVRXrX+utCE3I1uJOW2KFAn8lco4BwhHc0d8ZO/JAcIjG7e2n8oChIcObMee0f3w4wbKjoMoYCHvzBqELHXPgE4wIMGdJYyGiX179skXmaI23TpZVxDwwKIgbjoG6sCsS/wC30e5WG4BCFkdw7GkGJoBPQM49A1QdBOJOFCLFxn8pvwQFFMxLcUwBwChYsXo82IRejWcWLwOgskaothA0FvGW77wAdhdLt71kj/DIFeT4wG67RKCKMRNd9yK8eokLrvkkmbVQVYcmAYH6YCcDsIECOo23YHiF5q5FSDoSgudKrAcJVIkWNSMEn/yb2GR6pMYnxyX64RgkWkIrf+QShWL7vYzOCmSYk80FZpBEB2CNGtyseG0jehCd0Jlz+EX5jhviuGxjhoe8h7AK65+ObZObENss7GWCytSvREJ4JUAxkNo+fJ3AV1Y37MO337/19CHbrjonlmP0bJsT/4QZJD8bgbSfrvTQ/L1oQN/woNVLmK/vx9Gl1JGxKwucQbANYeatfYPKf0TBiS59nQZa1LRQoXUDXtvxIv+/rU40n0Y/eVu9B6MEU94qC4AxvrrKLgmKgdr6K90YUm1G9RBbiuNIFxiIZyooTsqoHuyByX0ozgW4csf/jLWzj8Hw7UJnPOWc+Et3A2vEqLGrFjFQFc4iL4AKEYB+sYX4Tsf+imWFJZitDSGO/1b8J8/+xL++xv/g1O7V+ONr3wLzli3ASvsk+AGDvgfNQu68y3RVw4QHvsvUA4Q5nCMNUCg4pjq9bu234thb0z6L0hhXcR8tKok0EFRBx2mA8KA4iS10mfKgLQ8gwWDANskU+keh8oKV9fe68NPr+B1K+Z2LIV2epyJQZjNKEkJCDtrFCQYhsr9UKvvtf8AgyeDW7asMXseooFINaXSAfZop4ur9sh0MDE+gkV9PfCqk/BdYBg+9hw6jFWLTsEPbvsxzj37HCwrzoNTi2B71Gk48MwI9+/ehqGRYZx35oamwZL2KciKAbPBP/13lkGYtoKXds6tACHLRkgaIgUwsttgu2C+R5dAat+Lhudh7549ov0od5eaZa2ce90DQypPAjJKlmgdKHgk+8JKhshnH2sTT934VHSh63EPEDiGHjzsbjyMy956KUYGhjFp1lu1l013LnWlMY6X6z1YVluOn37yR1iIeaLH6PRgOOawNXwyeXT0VD0XtLcqr2kTPkwx1egQ3OXidYEwYRpswLcZ0gPYBkulef/gcc8AMqICG40kJ5HgmVTOLjI9vP3zb8G/PvxtDLmH0TvRg+vf+W2sXbAS39r8Q7zmmjfB6glRrPbiQy96P155wQtQiSex8U2X41DPGGyjgcGRPtz5mVtREMUCv68WzKiEMX8MZ7/tXAwP7IJr2Jjo8jEQzcP6iVPxmbd9ECf1LgEwiH7zJLCcM+b5OQ3QH0L1D3Xk1JQ5F1unK6Wx0l5NnQuvV76QV9gc7V3x2N+XA4RjH7OOn2gCBL8BwzFwx9Z7MBpMAGYIm7Qj8/K20zS80fX4zRt+BFQrVamVJ0BgaoFBdnBwUPQEoh+w3RmDswR+Iu0OQshOAEFuhslnjgYgKGGU+ky7n9Rb6EDFLo579+6VVs88D1310E4o2dQacKy0QjrZR1qhfzTTFoWmgALfm0SvCUzAx5dvvx4/+dkv8HevezsW9fWJLiSYbKDLLgu/TIq5igC7hg9gbGIU65ad0vRr0M6PMwECfVw6yB8vgKCFkNw/j5NghtcQnSmlisKI5XoiWEiDS/VeslsCMaTvg+5KqQCCgbNO24j5NgPjUSjjj2ZifoXv8YMA+8P9eMYfPQ2TCydQL9alpwZX9BSU6pArhuYx4EQOCpM9WGOsw3Uf/T6KDRduoTTjGdS8GJZjoB7EsGxDtq/0/mxGRHxPmWLnsZQeIahIwBUdBLuG0KeCWhVhBAyEMUFK56oSl1KJUFULqKonLiqmXF4j28M1d34Ob/v2n2PSrmNJfT7uufqXGIj78aHv/j0+evtnMO6OoauxGP/2x1/Ec5Y9HWPxGNa99UJMzBuTXM2S/fPx0GfuRtnvE7DSsH3EsYHx4CDOeM95GBoYgxEOILZ9DOwrY9OHb8ISdxECy4fHPE1ooWyqqhkwXaLivVJ3sh2MyeogqmunPFHUzSbRczR7QD7+r8tf4Vdixl3nAGEOZ0YDBAQeAjPEnQ/djYm41gQIokezVAUBH5ombvoGGBYO7D8gK8H+/n4R9PE9OtiwakHC5kwVBscBILSrYkgDDPk9OUayIQQHZENOPvlkYUe0YLITuJDnHyWDIHl1AgQjhOUECAwPP3rwFnz4365BKXTwjav/AWWyHLYrHfP4j+QMLEuC5P4j+zEyPIT1q1eLHkCzIel0SDvR368CIHBt2VopoZpjMeUg5kyTE6g3ajIHZHRoVsVyU2VYBfG0EH1LCiCoqhkLkQcsX3Iy1s5b9fgHCJzfCaDm1vGlX3wF1kITXuwnLHyMyAwSZTw1CTpauSjEPeiqdOO3nnoVrIY1swaBK91aiLjB730Mw6VuQZXxcQks5YGyup+pv4UUEk+VQeha3cTiQOVCslGz9UbmFTylsUj+Ew8WVj0k2wrNANcd+Qle+NHfhLUYcHcWcMMHbsby3hV4x9fein/c/I8wrADF/WX88uN3YpV5KiatI1j9pnMxPH8YTuSje2QQWz5xLwb8+XKs41ad0AVV/wBOf+8FGB6YBIJBmL6Hj774r/HqU1+JPvSgXuD30YTDtvFmVTwOTGFMiGIIDCIoASJhlBJMt3t0en4Ob+lP+k3lAGEOLwERQ8cxzChALazhrq2bUDW9FgaBQUi7HJLm5SqPqQMRIjI37gcSjHRjId3aWJsQccX7qwYI6ZbSHVmEZCnGc9F9GNasWdPRW0FPQ5NVSAEEvY9jYRB4K6Y1VdkPUQ8nsCnYiz/++7+E7wX4/Ls/ipXFBShzJUdgQBbBMGE7LiJ2n/Q9DB08gCOHD2Ld6eubjZ7Sx6GPZSZdAt9zPBgEpijSaQg9lry+5LqJqENQnhQECQSefJ5zQ0Mntt5mSigNEKhyt00XYSNCb7kf5684R4rqHu8Pr+HDszz4Njsfks624bKFd8R+FHoUZY0uDbk8NtNiK+wwRsmwYIcGTKdzcyAGtQl/RNqIV8y6aDhY7qz8CdQ/MjESqDs8uAjgcXmGJ2JCft9YcUFHSzIJnG1Ll6N22AZjLfdGAR8DMHP4LN2UYMz6h9jChOHhojedh4PmLjxr7a/hPb/xESxetBRv/err8W9broFrxxg8vAh3ffwBLPT7MWyPYPVbNmJs8DAKLK2dGMRDH7sXCxuLZFU/6UawI6DeOIyz3/lU7Fl4CHE9xgKnhO++9Ts4u/g02JED36UZVxWW5yJ2NAAwpH26j0AYLB4vXWdJIGgGRp1qUmKtvRVSAtDH+7V5Ih5/DhDmcFYiMgQmpAEJvQ/u3noPfNqomopQTNYFAhBoWkRDHN6guZpbvHix6A9odKRz9Boc6GAk2oWMHfM0nYFQ860phvTqfqrTm9YQtKYJlIHJVEdJFbCTr6auwGhTjpllEHgMXKEyCOkGTCtWrGhWUkxRn+qIlL461adCFkitVsnpqeKISvaRqi2aUhkuAubRIwPFOIBN++TYEnOjqjeOvf443vjh9+Ddb34n1g6cglJchC19B0jbmvClzwHLSCnvMrBt60PYuuVBXHrl5RJMdfVAliHg3zNpEshGiKFLB58EBg6KrTqXIPJGP73XQlqH0I5B0MepAQwV8HxwTtLM1cMPP4yurjJ6envFyKnu1cXvPnFoRhBEKLpFXLT2GUmXzzn8wvwKNsXvVxB7qDN4GwU4kQvL57I1ORjVLFXlvM0YDStCLfYltBboPULa3urs/c+52ou92LT3Prz6A38Ma2EBI+GE6DsIChj0LDTEMVFSBwlfLit9aovEBIgmXmTdWaarujOaUn7La14dF6/bqYNWgbMZPtlsK3ThUNwXuih5Rfz6U5+Pd7363SihqGARLd9j4KbtN6J3WTeWlpfBCcqo2R5e9JmX4vqh/4VpRTgjPhs3vOf/UEYJh42DWPGus1DvHZfz6B3pxYMf34TBsF9KID2LDlDApD+Gc955LvYP7hcBrhuVcNM7fowzi+thG31gHxOb12NgAklFgpSZCqhRpYs8xsRnScYu/dAQ4Vdw+TzpdpkDhLmccgZ4E2jEDUz6E7hv6yZZhTDAMtDaliWCQwIDAgTSwCxNI0BQX25VpZDNzbcG+FYnxSxAkCRERoOQBQgmQ2C26iAVnOl3nnZrnA5CkjRgG7Ml/V7mtHXTIpbj8XwptNRtnXk3kL0k28iWOWb/zk6TQK7YgmVU5UbpGSUBBLzpdTOvGY5jCD52HzyAn//fz/CKF78CO/fuwNpl6xB6vEFZMKQEsTU4cz8EBDt27MCDWx7EFVdeIbsmQNDCvmMRKUreeAaBIW9+jwQgpIFJJ4DQBCUd9q/9KTg3PE4RM5bLLY2hqFFgo6Znrr/0CQEQqA1soIERc0S1HmewlLJe0to+aHStZG/KeEhJCR14jQYW2YNwKcTLdBFtBa4xqo1hHPAO4Ac3X4dD0TB0HyWpCuHnk22LeRLdRsV7hN9blVUQ7Y1G5R3uT+xjqPQIGiYk36cEYNDFlWDFjRxxIDx96em4+KxLxJLZotAm8X6I7Uj4DbWO93AkHsIlV1+F+7EFhuXh6YVn4hdv+V/Ehothcy9WvHMDvHKVnVQwONyHez91L7pRhh04YOdSnstQOI6z370BQ70HERHURH247R0/xtnlFTDRh5iVTc2Sr7m8AefbmusRyAHCXI5okiPkbWakOoz7d26WL40GCFyWkW5nWoGNiwgMuMLmTZj/Siw/zDgU6sNrVilkrJZPVICg0yAMrDxn1u3TyEkEcolHahogZM8zW/aYnSYRYop4qyErDIOirZDCSKAReOyLi9tGtuOTX/gMTh44CW94+Z+iz+mC7UUoWS68Wg1WwWm2Uk6vyHnMXFnff//9uDxhEDjOWqT4RAAIHE/drKtSrWBoeAj1ek20LwQK1F3wPEXEaNm45PTLnxAAYdyvYm9jH37jrc9DMD/AmDemGB5eCRbhAFfrDNaxBGwjdlHwu7GiuBLf/PBXJIdO06iOD8ZsNloKIhhlSDdX6eZJvwBuV7wLaJhmqBWzxZ4t2gUxSUHEMdyE8Wm3HwKYEGziNJWm0BkLeUaKTzywWZxaMJC1UGkL2WnCQtJ2nFhBqoVUfhRHzD04/81Pw67+/YgdA5cO/Bp+8kf/BQQWJpzDWPmWM1HvGZXv3MDwPNz36QfRE3XDYidKAm4LOByN4Kx3n4GR3kMwvQLCaAD3/PlPcZq7ArBcKa4gLCKIoWdlriWYyyA0t9vKAcJcjmcCEFiOdHDiALbu2oLIipoAgV9esgdcWZM50LXquqthvdYQC9gnCoOgWzWrZQ4bG7HFciDMCb0a0gAhK1hMAwbNgKSnijc99oxgG22ulJzIhlkD4FL/XceuxgH8+Zc+iJEjY3jeU6/CKy77PbiBgRJlT2aEhjcJ0y2IMFEHfB6DpuDJemy6d5MwCLq8ka9lUwX6mLKgofm+E5RB0L4YPE7+3vDrGB0dlQoaXpsECqKhkD4TBi4788rHPUBQGsUG9nl7ccnbn4nDpQOIuxOxny6fU4YQ6sEVfQR0eX1YEazAdX/3ffSjFw7oFNT+wY+PToYoFKnKj+CwmodNvYRDT1IXUuuomo2oeE0miy+qf6IcEJvnTo8kBzLNByGx9aZxc8hSQZ0bVMymKgggEuA9KXmCuIC4iE9bwP31u3Dl1VdiX+8QTNPBlfP/H/7ntV+FFTioOCNY9aYNmOg/BM/xMe/IPDzwiW3oDXtheYnA0AYORUM488/XY7jvCOyGjThYgE3v+TnWWSsBy0TEDI0RoIE6Cig/Icpn5zKMnEjbygHCHM4G04LiZm+G2H1kFx4+uBNi0cZ2pUnrYwYhnc/O0vzss9AuxdDyvhOBQUhKwGYqUyR5q0Vw/KkrATgOUuZIoVSqRDL7ezsGIZ12kPtrZMCzlXrBYY6/7sFwbVSMED/afCP+6TufwuUXXoaXX/ZKdMdd6I5chH4AsxihFtIKzhaxVhogMGfP+WHlxd13340rnnVFs5JEAwSFdzo1Rkpii9YcnKAAIc2Y8HcRKIbKvpnmW81UEVtOw3jCMAiVRgN7/b141luvQG1+FZNGTehy0u7Cekm6gUG7gciiTsBCoVbGusJ6fO9vvo3usAjT6swg8FqsxD5Mg1oWyhtDwQJshhGKtJBreo4pkwRJW6hIaW2UhTqvLZbbdhYxKk2L2od4opAREBkFAQK3y+2XxbFRihaSTU3VPYjsUo5PTAgoBoyBuunjpwd/gpd89oUY751Ase7ghStegn/+vX8A4i5UzCGsfPM5mJx/GJ5Tx8CRftz/kS3ojwfh+pYqEzViHI6HcOZ71mCkb0ydU9iPe956A8601wKWLbskZeGhAfeJ4NA5hzHkRNtUDhDmcEaigAxehNAK8NDDW3Bo/ADMAvsiHJHcLqsVssK7ZuogKe3LAoRp+f8MQEivtPnedhqE9D4khcFeC49Cg5AkCdo2fEprEAgMGHDFwCcRX4qinqI/BueMBkEzBXob6b/TQVyOnQCBbG4QSGkiDB9BWEcQhxiPAjy4dSd27Lsdz7/seei356EQlGHQeMaI4dl1NEwPZkQ1+RRA4D608+Thw4dxzz334JLLLpHn+NBlgceSYtCiq04ixaPRIDRzzZ0aQrUpc8yCmLQOIv1asxojcXPUr+mGWhxrzt3Fp132uGcQeG7BRCBNum4/fBvifvYkoF9AQcR8DLRSHyAmW3UEVl3Kld24CGMEOHfxmSgERVW2OBOHEPtUG6c0hAzg1BUQLiQiYr26T4iD2EtYBk4U2w3Y7AAx017IUJgwAjqVpnpDiIiB1TPi7qAEjqrNmwJA2tBRvkA1RS1wSW+aOBCN4qt3fR3v/OpbUe+ZwJJqD973wg/gNWf+PmKnH5V4FGvfdAFGi3vh93pYWluCW//qNvSiD65PkbAvPUGG/RFsfOta1JZMiqbDsgbx89d/D+ea62EX+kSAKXpGkykQrQqdwxtxvqk5G4EcIMzZUDLvqAACjUC27HwQRyYOITAC7NixXZrskLZ9sgAE27Sb6YQ9e/ZIed1pp52mPBBoOa1vVimR4kwAQQeuJnhgr4VGDV1Oj1hY110f++PD+Id//UesXrwaL7j4+egtmNLaOg7IzLhyz+YKxzd9UVJLmiKVYiCQ0bbT1Exs374dG8/ZKOeRLmt8MgAEMj7Uykh7bj/ApWdc8YQACOzF4PtVxD0xqlEDXUYvHFlFJ+Y7SgMsD7IqnsFCwwBFahH4vkYIlGZp1qTsJeQhQV4b+yRZBm3CpLivCPWgIeWwgcUEgCrxY2usTrl5fq6KGmj6VIrL6LLYAjkxQdKCApOhWfWOVCBA/0wdBBsxSTUE9RAWxmIPf/ufH8V/3PDPMHpr6Dpk49qr/wXPXHwhJgMDhhXi3NdfgRHzAKJeH11HXNx5zd0oxkVJE/iGL4LParWGS995IYbcfSh292DfaISf/dV3cUHpdMROtwy1I7vV1ohzeBPONzWnI5ADhDkczjjkfSaCb3p4cMcDGKuPYN9h9k2IBCDICn+WZk1PFAZBLKEBlEtl7Ni5Q4INfRD4oOiN96VjYRDS0yTaDXq5RXV0h13ibXuwOIK/+c5n8fPbfoEXn/c8/NmzX4Gy2yM11IbNMkZvqr21JH6JUXirnepRwO3y2Og8SGX/rt27sOGsDU276DQLoAFDMxB0SDk8XhkEAiQCO5pbsfLk0tOfGAAhZoB3YnhxA7ZZhBmYKlfPS8JRhlNMOYhojwZaDOAhdTMsvOMKgGrDmfQBCmtoRYEu09cZf4ofpYuCwQoJHw3UsGdyL17yzt9FrauBCasmrEVUZ4Bv/yDzNW+iH5/7689h46KNUrrosleBABImOdmRUqXP1Im1Mh5yCNLLgIaF/CJQA2FhIvIxHkzCcQmJxlDzgYXOUvT6BfhkP6oV7C6MYbBQRMDjPrAPZy98ijSIo5f8uD+GslFCMSjjQf8eFHtsWHEZQ4aNU+MB9PllRC6NpoGiDIMCJzM5Qs7h7Tnf1CMYgRwgPIJB6/SRJkAwPDyw436MN0axZccWzJs3KCsxOiFqm9tpqYMnWIqBAEFbSTPQUJy5YYMKtgyutkm3gdYyx1YGIanrbldKqYrSUA1roqDmTfs/fvEN/Ptt30Ght4R/+JMPY2G1KP3nSWeSxaFtq5jc8v4eWCJwJA0rjm1JcNfdEskkENDs278Pa9YqUKNTJbIqzICBds/p9zxeAQIZBM4bBYvzBufhonWXPCEYhDgOUPNrcN0CAj9G0VLtg2OLnQAqcl2xDJgBl9Q7g2lIsSYCFJg7F2Q7QxWDBGkuE5QSgA/m+1k2Ka2iWZ0QFZXYwAaqZgV7/N249E8uA5YZOOQMI4wb6nORIQZO3ALLIXXKwQltnDx0Cr78kf/EmtJqlFlmqFkL+VIpbw+tOdC6S+2coJgLwiA5BKWRkBbQqg20TVBt+JhMvEZKkxHMgiv3L7IuJZc6DZXCiMYtGEUqKtgWmtUXLowRG/5gFQ2vgm5rAY4YAeYZNugZF5UgAKHQVILmAGEOQ9CcbyoHCHM4pEwxyNfGjnD3g3cJQNi6cyuWn7xMehA8FgzCtDJHlv9lrJizGgRZXWQCbzo4W0ktdScR4tFoEBzLEc8HgoRdu3aJIdTpp5/ebFHt2mzvkjJGSuaheaxyDNNfT0+X3IhZeQADlaCG667/CZ56zlPQ39uDguXApqfEDIJCxSAosaFW84tgL4pE0X/bbbeJSFG/9kiqGB4JQMgCjtmaNWV9ELKsxkw+DE2xYkaDwHnYsmWLzB+7Q1658TlPCIAwh1/3R74pTTHYEepGBQfCA7jiDVdirH8MQ84Y0AMUjB644z4KNRoz2Rg3IviugbjeQJdTRt/kAP71/f+BC3ouQLlWFBmOpPOZ3JeVuXJUyB/5CDyaEcgBwqMZvcxnswChFlXw8xt/jtVrVolTouS3M+6Aj1akeKICBIIUBloeHwV/bNi0bt06KRl0bAeBz7D+6ACCMrdRhWG85zYiT0ABV3kkhGVsjwEg6GDJeeIx33jTjXjOVc+RIMnjJuA51jLHxytA4Lnee++9UomyZs1aXHHWs3OAMIf3CrUp5QUwVB/G33zhb1Dv9jBuT6DmeeiL5yGOqjC6fYwWxvCDO38Cv0gGLIJdMXDpvF/DZ978OSw1lkpvEaVDVBVTytwgZ+7nfLqehBvMAcIcTno7gLDp/k0YnDeAk046SfUrzQTFJzpAYLBlySDr6ylSZKAlfe1YNEh55ABBkbdc+ScgQZ6gmZEPy7QQByHsxDO/s0dBK4Mgiv2ETSCgufXWW/FrV/1aszvik4lBYIqFDArNrRYtXITLc4AwZ3cK3TmDRD0v28D3UQ8b8M0QsaMMjcr1ImqlCo7gIN77ow/gKzd9DXHkwalbOHfZafjCa76C5aVT0BWXRGwrDY609kBXSOQEwpzN2ZN1QzlAmMOZzwKESjCB4fFhjIwmnQxdJW7Klhg2/6bdasZqebYyxxOdQRCznSCEH/jo6+2TxkFkELIiRT0NR5tiEDwgG0n6OCROhyaNWFiNQCZB1393EBBmUwzpS4FVFzfffDOe89znNJs16WqGx1qDcCKkGLZt2yY9NC688EIJY894gmgQ5vDr/og3pTMM0sg5EQiEXpLTZ37etFm1i4muSXz8xk/jk9//JEaNCfQGJax2luMTb/wozhl4uuT7zZBuiBReEh5QP1BUTY6UdCF/5CPwqEYgBwiPavhaP0yRoh8FiJ0Im7fdJxqERtTA4cOHRJy3fPly6ccgWgRTBbJHyyBkA6s0fcn0Ypjug5DQ7ymjojRwma0Xw9FoEChSZEkj+xfoh27zzEoBthieSaRIK+UsmNJ/N39GqXoyPin97pWOW8zwEsYm7aGQDr6dAAJ9DyjQo1HSlc++UnVETMSVaZYhPfudWIpHkmKY5pmgPfcfQx8EUtM0SuK5Dg0N4cEHHxQ78DPOOANjo2O48uxcgzBXtwrhERMfD3WRKzmhqqnhI0QlHsI3N38f7/7y+3HEHIbpmzjFX4ZrXv+PeMbJT5PmSAYbLrGC0QgRWr6IBi02Y8oBwlxN1ZN+OzlAmMNLgACBRj2RHUqZ42hjRNTPY+OjeOihh0TstXzZMgmcQrM7VEmnOhY+AgbhRAUIvNMxncDAqq2K+ZOAgc1/QnrVz1DF0AkgpEECOOD6/qpekIouUVfTJCa5CR8tQNAuigQIFFYSIFx2xWXSipvb0O2TH2sG4VcBEKKY1RwR6vU67rvvPgEKTAnR3KtRb+CSJ4oPwhx+3x/xpnQ5QaIboBJBrf8JEdimvIYf7fovvPGz78a+4hBiN0J30Iurf+O9eNGGl6A/nAfLiaXSQppCWkBkq0bJJvtOJmWbqVYNj/hQ8w8+uUcgBwhzOP+MV8qIx8O23VsxVDmCRlhHoeCK6c7BAwewcOFCsO0xxV9aFPdoUgwnKkAgg8BzJEBgRQABEQGSuBXS+W0Wo6QsQEiPlSzAxMqAZkeJ30oCEGT8+QqryJLXjhYgaLDGTTHFwIZN551/nqRHxHuBjpCZVbwe/8c7g8ApoU7kyJEj4gGxbNmyZmdHpoSevvbiXKQ4V/cKXX8o9siEs6rFserjaKKGKi584wbsLg5jcqCBMPJgVQ2cFC7C5adfhede+AJctuYZ0qmxN+5Sxgsut6JaJLIxU1LJOFdHnG/nSToCOUCYw4mXBS27CcZ1PLx/Jw6OHQAbN7GbGwPMzp07RR3f3dWFFStWoru7W6jFJypA4CpUlzky6KxatUpsiwkQtAGsPvdpYEksodW4pWn95t+kxBOAwIY6IpcwcgIAACAASURBVDcwWc0QI5De8jGcxF1Otp0wNQIumn0SWkWK+hj4HgZLdqFcf/p6qV7QKaEnKkCgHfjExDio4RicN0/KcoX9MS1EUYyL1j8xfBDm8Ov+qDalkgkqGaaKcZNOixGkv8gl77kA91W2ojHgIXR8GIEP1zdhBkVYcTfecvkb8WfPfj26ghLcmFbJ9HKgUFE1q57JDPpRHXj+4SfVCOQAYS6nOyk/9qIGRiuj2PLwgwjNQDo6cqlrWg727t6HA/v3o1at4dxzzlFdHXl7sJU1sfQpsKxmK95pIkSxTp0KnNNelz4FU69nGQblze4ckw/CNKFkQt138kngPkM/lPPg+VDsRqOklStXCmBQ20t84Ts4SyqXl+nnkZ4uRciqh5QzJr8nH1UMDcGAQgUKaCS/S6BPrGR00GdA1O23CWj27duHtevXyufIgOgmW8eSYpBOfWlQktFFHE0vhqwPQpa1ECMoejp00Cgw1RIGgYy9blmtGRH6U+zcvgNjIyNYtGQRFi1bAsNS+g82DXKtAryqh8s2XioNtvLHHIyA+BQx+egnAZ2mTPyuML0QYxwTeMXnX4sDo3sxWhtGJRiBh0nU0RCPpprvo3diEJ/+o8/geav/H7oni3C7XMR0IiI4kJ4juUhxDmbqSb+JHCDM5SWQAATa+o5Xx8VNMTADcWljGZI4kloFTIyPS/ApF0sol0risshmTgxAOhBpncL0KgU2OeoMECRoi8W5es+vCiAEXqDYAssS1oRpBgIE3dp62nFlBZMUWurg38bUabZpE3E4LWST4CwgIlXGqD6vyiSbZkFJ62MGUYIa6kaeeckzmzoKMgnHKlI8XgBBncvUPxXg1d9SShcETRCqdSHUWXBuqpMVnLRkKU5ecTLoztvwPWnNTbdJXq+hF+PiMy9S1HX+mJMR4HWpUgJs+GrC8FVHRj64oJioj6k0pAmMGCP4n7t+gE9+67PYXtuBoCuEExk43ToNP3zvDzHg98KgQNfyRKbILo7yyKdrTubqybyRHCDM5ewnxusECBWvis1b75UGJhogGLQXTgIfA+Xhg4ck31uv1WR1RzOlwcFBuZnzH8V8OkrqgC/q5ccJQCB7wPOkKp7//r/2vq05ris77zvn9A03AiABipQEEiRFSiJ1mRlp5JE045Sdsf2WSuXV5VRe85BfEPstTuUhL4lTqUqlKpVUJXlLxYnLKccPdmWc0Wii0XhmKGok3q8gwDtxa3T3uaS+tc86vc/p0w2ABMGGuFtiAd19eu/dazd6fXutb33LBghF4FMEDCQRKIlRnft2tspUj3VbMiu/wAYDChBsZ8rnVbvh17/+NX7n937HECvrdZFfJuAZtghCJC1++wMERk/k81SvS7qE0RyCH0YPCE5PHD+B8dFRRAnlhkNUazW0Ox0R3KmI5FQFH77xPQcQtvMBHHCt9mnItI30Af4kZqiY/kpS3BAlaPlNrFRX8D/O/in+8D/9U6yPN6Vnw1z7CD77Z59jcm2f9Iqg3rKQc6mUukNrdcO82BZwAGEn9z8FCAwdUu/9iwtn0UbbiiDwdO9LqSNb6JKLwGgCT6skxJEMNjo6JuI0BArM/TLsqA5SyiMlv7g3IghcL4EPRYf4HjXFoP0o7PdlEwQFPLCiI/2asyMh29kuwwq3TtJplKLr4NPyMj1pe54AAJIRKTN89dpV/O7v/W63ZbV1Qrf5CjbA0PV1eQ7PPsVgTqIDIgieh+bGugAdRnK4FwQKb7zxhnANxkbH0Gq3xCO14g467Q5qNQNmg7iCmt/Ad1//rgMI2/nwbQIQBPyamkZJD7WiNflbr/pVOfq32QehE5mKhGqEpr+CT27/H/yjf/kHeDjaRGsCOPh4P37+x2dxsHkI1YovTaiYuODrHQ9hhzbrBR/GAYQd/ABI3r0aSMnSWmdNtBA2oiY6aKM2UkW7EyNg0xLNuydsw+4jiWNxpF9/fR53lu5KGJuOiqQ+Mv/1vugmJJ5EFlS0R7kLfL2cbtkMppBi6NVByPdiKJ7mn6QXgzp4HYu9GFTngSdVkv4IerhOLScsAoQ8EFK1hSffIO2A26+KweCFrmNl6F1bPlNmmI70+7/5fbEr7VxWxcDHngYg0DmwaZQdlehJFRR0EFSXQdNRG+0mgkol40hoy2qOQ3C2uHgb6801sT2JsbOzs1kVjQKdWPQjqEppUi6yR4QEUYBD+w/h1OHXxe2429NbIAybCIRfUwebSa9Xmvizz/8MG+jgt977u5jCPuwPp4F2DFD4q5rggbeMP/xvf4T//Nl/xfrUGvyghePNefz4j36KWcyayEOVFTyh7JMDCE+/T24EnhmKRyFnlSe3QMpBIEBooY2zX/8SrXhDWssmPk+zvnQxtAECv7Q77bYAhVq1jo2NtjgmMugZEp6YmBDnxC91aZwzc1BK0ejMWKOujkuARvrFLq7Vyts/K4BA3QFNAxQBAr+i6GSYR+VPrp1r1ly4GrkYHdD7gadCtE+xHaKb1E0zFPkDEqiwOAhqJ560z549K6WOH33/I3G8fI5r5+8KCPhzNwACKzKEbJkSHKlVwH3nP/OeYqw3m3KfNz5/+/ZtiUqJ3katggOz+6V1Mz9TdppFfzfaEeY/IX9GBAgVoOPh6OGjODpzzAGEJ/8oFl65gZiVMZUJtJMNLHiL+PAff4zJEwfgJXW8dfgM/uAH/wAHJmcQBBXcWbmPf//f/wP+6usfAa/6WE8eYl+zgr8z+1v4j//kv2B/NCV8A/KduH9MC3UZPDu2aDfQC2gBBxB2ctP5Pc7/PEKECL+88AusbCynob8IfmB6tNsAgdPXUyfa6YSoBHVxqvxip6PSL3vmv6nZPj46hpdffln0FFRoSZ2UVg2w/fGzBAgqQGRHHuzTP39nBIHvQQEMH1OHptUauxFB4MlYHboChO59AxD0vkYPuD6KJPH0/eHHH4qdNfVQjBaUOVv7ms1IiluJIIjTtt6Htp5W4MLn+DlhpIakQ4IDfnZob6arDr18CEna1lr3gc9nkQqmuj0DEERiisTGOEEVVcQbEc6cegszIwel/sXdnt4CnXgNVa8KbFTQGYnwJ3/9b/An//df40brFmr+GDpNINnPese2JBSlcTPlwys+muzmOFHDS4sv4U//xZ/h9cbbwKqHYBySziQwoD6C3Nx2Pf1mveAjOICwkx8ACyBQ/+DirYtYvL8Av+6JHCp4KrYAAv+YlWUuzpKBQfanT290TLwxX8wvfwot3b93TwAGb6x84KmQRDM9GTKS8KwjCDzNFvkBdpRCFpfmVzUFQodEh0ZVQltiWkFCkYOQvoun2p3tpBjUqdN+BDZffvmlON13v/1uJo3N96iSy3q9LrBIXNwqB2ErAIHkQRt0cK+ZsiGfYHFxUT4bU/umpGqDUSX6E0ae+DvZ7QawMjcNWb8CNxsghClAEGon9zeBAIRwtYPvfed7aGDMAYSn+jR2X8w0QBR6aEQBmtU2/vh//nP820//FcLpDrx2BZ3VGM3Gisgo8zPM/SRQqCYN1P1R1KMR/Lt/+Cf44YnfQXVlBPURH51KgjY2UEUFtTDt7uiqUndox17cYRxA2MG9VzV1w6CPcOfREs5f/xr+iAdWNvheIBrqGkHQwn2RIk5P/aw9lxxy+sVALMCSM+UqUKGQVQ/37t/DwwcPsH96vzRDMn0PWhipj2DmwKw4CH6zVKs1xFHas4B8p2pNZI4FjrCULS39q1Ypi2ycw2htVECJiVCYk790TZQ1GgqUTZRUJ29HLQzw8UR4hw7sypUrmHt1DhP7Joyaome+vfQ1ekLujmHSF4NuxStSxYPsJZkuQhqet3Pz4hxlAV0OQsw6VFaLBQEunD8vdj969EhWLqogJscXUBV90VxII0ixEYqQlI/IObGvVJyJLTGqoWBDRfm5NtpcS0OV79BhyWHgYaO1IYCFPSKWl5clQkBHz9eNTYxh/vhRKZn1qT1Bz8JYQMw9M+9JUwdiZ8lYpO/bLDpLLkjLINokjNEIRhCEPr57+n1U0XAAYYe+K1hzIk6fjZa8BMvBI1x49BX+/Od/jj//3/8Liyv3cGd6GV4lgU/BL3JB1j3si/fh7/3m38fv/+bv4+2p0xjFCHy2dub3jU8aQihEUvZiMX9cO7RgN8wLawEHEHZw6+kM9C+Tvz9ae4hzl79AUo/R8dpCUAzi3kZJmVOU40Ivf8B2pHHIfL6RaQ58H2G7g9WVFTkZLty6hY21JsJUpIiRBZLSpqenJSWh4/BoopwAmzvA3wUUhORGERR0w/Mq4JT6VKOEaGkXFH/XKAEdHh0fpaYp38tTrYlydJsx2VtQTFsMBAiWzgOvK6PT2M5ceRrZ+0qduL5WnTavY7MiAqMjR+ay0kZNQdgnb4lSFLpFci84Fq/vRB1x8ArE9GdGeIwTAXCsJmBqgyCANmN0gOWIrdYGKvWqPM5x7z+4j1q1JnvKf2PjY6iM+AjjjoxDgCDAxJaFTtsA5YCNVZFhegWlor+MNpBez14aUYCxyji+c+pd6RLoUgw782WRBtcMf0f+xGI5/Tf5L27ixvoCbj5YxOLdBYRhC5ONCRw7PI9jU0dxoDKLIK6iWqnndE52ZmVuFGeBvAUcQNjBTwRPaQramc1tRms4e+FXaCbr0uFRvnQLKoa50PwWAII5eWd9jFGrmKqAKhshbbTQaZG30MLj5WWJMPD0PjNjyE5MSdDR8PUED3TW/EnHoaQ3YgKfajkJU6Cm/t92oJL3LlE5zEBOSly0gYeWDZI7IcqRUq6ZBxi9EYTNN6ZIcOwHEHT9ChD0vpi7UAZJJ02Q9Itf/EJs8vrrRklRnavNYxB+A0/nFpDieHTkOi6rWtqhyfcrj8EmNjIK0NpoYn29iduLt9FutSVCQOwjgkbVKo6dOIZavSbcFM/zZd/YeZERH4k8RGuosg4+FUSygZ2JlJg+gVsFCCLX6wUI1zo4NPkSTh97ExXUHUDY/CO5pSu0KRMhMv+WCOxiL0QUxGjGG2j4ddRaFUkxSHkCKxmYoQwZHyBxFABV2h3HYEv2dhc9uQUcQHhy2/W80g5xm+ByiF9d+iUeNh8gGPElFVD1+CXfVTncLkAwJ2/PkP+iCIGXOloJ2/smvCz0fBO+pzOio+c//n7jxg2srqzJfXWwBA4EEayUoMNpVEdA7h5PqDZzPzsFp10naQAdQ8P3ttO2owFfffWVCEFNTU2J3RQg6DUKKOwxN9uarQAEGwDYKQY+bhQKupEH24H+5V/+paRpPvzwewOFkYo8Bxk3TSfI13sSYaO9IfYm0XRtbU1+MkJAhz85uU9SQ7Qzq1O4Fxr5YfSnTs6GZ9qCixRvhwDGyHIrGKFz4cdCgYkNaLYHEBg9MHYJkgBJK8abR9/AwcmDCAhsnUfa7CO5peeLAIHpRYngsG0z/7zDGPWNGuJajDgwTZjigPJHVcRsNIIEtermKbgtLcZd5CwwwAIOIOzgx8P0BjDHUgMQIpy7+gXurd6BVxPXJ7Xl/QGCcZ3qJMuuM+WD5jRKLkPCcjSe6inZKmCh+7z2DtDSPI4n7PagKmkJ1SdgVIHOSsPcnY0QC7dui4Pka5TwxtO/RBziBLVKzZRmpl0p9XSsSoPyTnxT6kgwQ1VCAhD+kxMuU+OFPgy6FfYpXa/RkLlxlKak04466Fz2a9WOWjXB6/U6g1LSvSqRKCZAeOmlg3j33XdzIELTBzp3J44khcJIgKYBbMXFTtzB0p0lAQRBYPaHEQpGZiT9s38atXoVI42GPFepEvjF4ux5PTeWICPM0hYsFTV9LmhXchRYoRDGpgTT1nKweQaDIggCJhN+XumkDECoxBUEHR/fPfM+6qjD91lC6ZLaO/F10ZNiMKQlw2bJxLxCaUdKsjP/4zcHv09YesooQk3UEt1+7MR+uDH6W8ABhGf06TBB3Qg37l3HtbvXJMdYkTLH/hoFhrI8mIOgEQRxlBRUIihQsp/8pFMxUQRbqji7L181vfwBdXz8ufJoDcuPl+WUSilojUBwzldeeUU6/LVbHSmn094K2k+C98l3UPCg47KTJaMHjCIoB0GBi/IV1KEruLCBkkYyNCpiRyx0DvmKLQAHDecr0NBxpFohCnM8C41IMMT/6aefSgTlxInj4nTp/AkE+I+OneNQjphpgdU1quBpgyOT/ycQok1qjZo4b94IwLTnhn7sJPzPdpTWuiVlkaUGDNjUSIBNMDQiT0xx5Js1ZWNbRMTNAAJDRiTMiSYjo1FxFbWohg/OfAC/AwS1tHTuGf29vEjDarfnLgfB6jSWGoJfBQYr8LMhNFfzT0JWwqR1gO1F+tA8p/fqAMJOGl5p8yZYIMh/I27i819/hog66THb5/aqGGaRgicACFlJY9pNXk4gadqhGO7X+xX2g7DSHPZJnAtnBz9+F9HZ0znapDteS64DiZDS6GfdSPgqo14lfPk4HSW1BBipoANV58zr516ZE0fL0zTD7nrK533Oy8gEf9LJ6smYY+tNOxNyPRyH83M+LePT8fhTBZtElKrTkfVwXWvNdZlX3yOfP3z4sICBzz//XKZ6+WVzn2vgqZ/XkEuh0QiOwW1ndIXcAJZxqm0lbVLxTCOdlJtgpwEE7KSpqB7eQMprkIZTqbphEQBlEQKWQZaQJbccQRBQYHT8xRXxc9j2MDs6KymGahTAq1VcAGEHvyv0q4KfAOP8uYEpyISYX2KJLDeVRyXKYwEJhw92cDfcUP0s4ADCTn42CgCBEYQ2Wvjb8z9H6HXQCU1Z2k5wEDSCwC8NW3iJAMHzuyWE9qlcAQLLpuzHVXBHgYDJNxv+gqYQNMRPp12v1uQUo2I7HIuOlw5SyXjqnMjE1/A7QQOdM/8dmD6QaSLwGj7H16jD5picmxEHrptrY8RCc+96La+jJDVvXBs5FgQcqguhQk2UeebpnY/zeYIbJSnyGtqAQIPS1tQY+NWvfoWjR49ifv5odupXFUiCBAFAUsZo0j3axlrBkEZHwiQUfQLVT5DoSZp6EdCQMHBM1plVeljSElqflzOlJe9sHn9agMBIhAIEEjJ9+B0fJw6dwNz0qyLbm1JfdvKv5cUdK0MHjB8ZDUtzIxSoCFzgo/qIJhLsr5en1xl9cc3v3vnWLeAAwtZttbUrrb9iOodW0sTlxUt43HyIjXbLpBn6kRTlFLFJikHUU0z+XgWTtL2z3Bfqcx6EKBhQgKApBjvCoNyBwGc/ecMtsE/8qiZIZy+CTn4gzaX05K58B7Ltq4Eh0alztvsYKEeApXphx3Qh5Fi2VDSdP1/DBkI8kZPZb/LtHbmvQj8ci1EFBTF2+kDADk/u6X7QSXMeghpeL5oD7JuR6k+ojUgEfPDgIT755BO8//57Qt7kaxSAaGRCohWiMSCbke0p18Z/nIM2abY35HvfNN1KhbEYOWBkINZElEl1lEcREgn9DwIQ2vXHHiN3/SZVDAoy7AhCNa7i9NHTmGnMSNMmBxC29ue/patKAEIXDmgS0YDG/M0AUvmsuqqSLZnaXfR0FnAA4ensl3s1z4JSwMcObGnUkK14r92/hBsPrqMdhaKFMAggSA+CAfoCepooEvyy+zGTDr0cg9yYKQgpAgcdgySoohCSfa10oSsZQ+cQoFJwvNevX5dTNDs6asqgOL99X53lDm5P5mTVeRZ/qoMlILh48SJOnTqVyVnbaRg7dE+AYJc5Fh09GzExjWDPZTtv8/66Yk1FICBKiwWp5eK6hV5YiDrY941H6V/myKcFsGRAAkJMfPfktzHijwlh0RBadno33HjOAs4Cw2wBBxB2cHf4RS7qgYxdG7FC6da2mizjb8//rTgKkggHAYRi+V/PtVZpYSlIIL9AhFm7JYg91/UhSqqDJkAwanz5MTIHLuJ8vc9n8xiPk3uf9+/flzI+thjWmw1ainM9K4DQ65zTMkemC9IqBxIzSap8/fXXM5EkfZ1GQLJx6HgHpAekU6Ol1qjvPe/A+0UPjMKh0WLsFWRSMKICXV1OQm/5pgKEIgDpvg9VVqReh4+p0SmcOfI2vNhDzas7cLCD3xNuKGeBvWIBBxB2cKeYNzQAISUcM2zsU0VxQ/QQVtqruXB05nCzlIMRELKdZVFfIKtYKEQZMmfL/HGBY1AcY7M5hINgpUHsdcrvKUCwUxT2HDY7W69hh0qW+h07dky4CpKqGDDHswYI6hiLP/k+CGTYTfPNN9/sOZnr+9GqAg366nqL/IDQ61YY2HPlHf6AFIJkqU1GuhgV0PsRpS/76DlkEQ0J+/TnObDbqBLlKd97/NUTeGnikKQXqqg5gLCD3xNuKGeBvWIBBxB2cKcyqlEKEIQd74WiqX7jzjXcvHcToW9Eb4ppBHPf61sGmTnpdL1bSTGUz8G0eXmppc6xnRRD2RymOqs3gkBi4GuvvSZhe731AwnPGiDY46sTJb+AHAfKQvPfD37wg1LNhQwMsPyM0YEnjCB017B5iuFJIwjZHANSDPIOTPsGiRj4UYD3z3wXFZHmqcvnxaUXdvCLwg3lLLBHLOAAwg5uVLd0KY0gpLVJYdJGs7WGX108i9V4TZyQ+NA4FTnKogGmR0Ex9G6f4DNiYp/TN2WSlYPQl8uwCQeBHScHcxDk2dIIANcqVRUpkVLXzrD9rVu3pDJA338xMmFvhR2deNItKoKMYnogFw1Ic/h8jJ0cGUH4/ve/n6UYygCFONYCB6F4ki9yEIpcAfPe8gAhd9Ln+GmKol8EoIyD0AMoNgEIVGtknw+mEyYbUzg9f0Y+i4xGOUGeJ/0Eutc5C+xtCziA8Az3zziDlKkehTh3/Uvcb92TUDFZ7qpg2D1Fd3sU2A7SPmVnnSD78AMIEKijX3S+uajFILEmqb02REodo/iTHIsyDkI2Z6oxb8/J0sGFhQVp2ERlxjJxpN0ACLbjtAGCzs29YR8GApqPPvoo68NgO/68A89zEOxxOFbsU4DIEAT7OXgFCKVzsAhuE56DSXP05zHI3JusIQ5iJGGCalTDiVdO4tDUobRrpxP8f4ZfEW5oZ4GhtoADCDu5PWnlQndIfmnH0oOhUqni0tIFXH14Ncfit2WQRYrZcu5lDpodHO3Hi0BAAUJP9CBVVuT1gzgIJjbQjSDoe8mBlBQg9AMxhBZG37FLclQBIxUcsqsCyrbgWUUQUi+t1Y/Z1FwP5+Q6WeLINMgHH3zQN+/fj4NQ5AlQX58Ovh84UBCZgYO0ZXR2fQEg8PEizyFOyFHYXilkDrBwDj+CF/uoRXW8feIdTNQns8+JLSG+k38ubixnAWeB4baAAwg7uT8qiJaOGUehCcMzVe0HeNi+j59f/lw69IWpaFLewfePIOh1ZREEewySyiQs3JfnsDkHQVIMAii6XIn8HL1cidzz4t2sXgsqBS31/+wUaESYylIpNiB52q0pSzHYjrqYYvBStce//qu/wtT0NN57771MAlkccJpDysABSaipvJ3hMeiKze98rFjF0JtisCsOumOY+UxswOggaBpCyYrd+4OqGDIAUqikyMiLaYljJ2mjHoxgurYfZ+bfEvZBJvBn9Rh52j1xr3cWcBbYOxZwAGEX9ypEB7+8/AusNldM5zbPiAlJrjctKxSiovG2XQctuux6f3AzJyEgqmO3ogbiDNMxqNPQl58gqQWrv0OaalAAwMUJgCikKfIAwYAiux+ECiGxekFUB1NnWiQpPkuA0EN89D3j81ORIj2Z/8Vf/IVwJd56+y0Q5NnONBcJ4EsZmtdUUgoKtEeCvE5IjP05Bobk2J+kKO2k0xRCvg+DVZGQAYhupUPPGkoaUun7kjV6MTprId479T7212dMJIvG8WG6Sab/7eKfi5vKWcBZ4DlbwAGEXdyADtq4t3IHX13+GsGIJ+VrdBBy6te2zel61IH3lCh67KrX22Y5c9Cm0DK7ppgG4OmdZWxlY3RBQ38NBL7OENf6zyHOhGJR1jr5O8sceZuemjLvt4RHYW/H06YZioCg536qZ2Wf6imSdP78eWm2dPjwIURRbwmhggRpo8RGS4Py/ymJsYzkKOMUuAF8zE4hCHiwOAg5gKK8BkspUe1ngxrhQlgciLI5mKYYq47jnWPfwkgymqUXDEAwAmCOrLiLXxZuKmeBIbCAAwi7uAmdpIVW1MLZC2elRwPzvjy9SfRAeiqUiw9lzl8iAHkCYg+ZMAUI/UiGChAGRxC6zr2MZ0BAU1RrtMGAAgR7DgIdig/RWVELQcogrdRD2TY8a4DACIdK1yoH4fHjR1hcXJKmTRMT48Ih6RdBEGCQRRD6aAxsUuWwWQTBAIRulMEGCNnvKUDoApe8ZoJJieSFlrLogTaFCmMcPTyPowfmUQmr5rOYqicSoKS9QXfxr8VN5SzgLPC8LeAAwi7ugDTu8SLcvHsDN+9cR+hFQJDqBVgh3DL+QAYSUn5BDjTYokklHSHzAAMSQRg0h7aczjn93BxdgFBKVEzr6YvpA+ogsDrgyJEj0q/BLtksbsPTggPbWdqn6tw8aYpBnSXnZBMmNnxiA6gg8DOAUOp8CS9SVayiw82F7/uoIMqYm1QgSHphk14MWm5ZBmQkWjAgvWDeF1BDFWdOvCVRhGpS60YQnMTyLn5DuKmcBYbLAg4g7PJ+UPVutbOKX379CySVGHEQdZ11GkUoy8tnj6UtYfV+MRIgojYFjQL7WmEYFACCmqA7bz6C0BNtYARhAAdBBXeK7+PBgwdYXFzE22+/jSTiqbRLZNzKNmwXNGwnxaDXshSTKYYf/vCHQiQdpFEgGgimMUUWZSgSH83pv7+CYVkEwY4SGH5AbwmjfQ37KMg4VsOn3Bgl8ytJVFJYiYcDIwfw2txrhpwY+6ik1TSyL64Hw1Y+nu4aZ4FvnAUcQNjlLQ1JevNjXFm8jFsPbrK7q+EhKIHQSjMUT+fmuzrfqrlcRrm/gy9yEErnKKQ6euWeDUnRjkzkQEaBg8A56LzYivreJwAAIABJREFU1plRBEYQRuqNTTkITxtV2ApA0NO1OtRLly6BjaV++7d/G3FM8GZWYfMUsvsCEEyjJH1e32t2fYGDUOQGGKGlfDMney4DMLpaCznHr+kBabTU1VoorpcApVgaSR0ORnNIGI07Cb594juYGJlAgADsHi3lt3Z/YQcSdvmbwk3nLPD8LeAAwi7vQRzFklZ4sHEfX1w4i6TaDVOzkRO/oIv8gZwj3kYEwX5dRnpMSYo9c4iarlY3bD2CoHPkfqYAwZ6D+gIkANL5HpufR8MCCFuNDGz1Ot3SrQIE2+mePXtWHOfHH3+cRgYGcBDSCAJ5CjqGAoRszJJuj/Z8TxpBsEGE6cRYABlpWWaRf2ADGYIGVpXsnzyAb899B3GUoFqpSMohq6pJZcNTTuou/7W46ZwFnAWepwUcQNhN60cmXNtJOgj9Ni4vXcLSw0WTxyYnLGF8IK9h0OOAGd7v16hJJI7p5Ad3WixLMeQBQ79eEWn1hGgtDBBsKuEgCJM+jqUR0oEDB1CrkAjXW+kwaDueBUCwmyARxPzsZz9DvV7Hd77znbSCIR/ez53ORaOAm/pkKQYZq4SDYM+xFQ7CoBQDxyrjINCWfL/8+cb8GzjUeAVJlCCoBIjiCBXfVMtoAyfX7nk3vyjcXM4Cw2EBBxB2cx/SkK0I43oJ1jqr+PSXP8HUwX248/gO6o06qklJJ0UtB+Tpv1Be2MMPkIZPvbn9jIfQpyFUPkph6v+KHILu/V6dBFHzVXEmgpQCR4FqktWaEd+pVisIW22LK9G7CdsFA1vZxmJEgZWYNj+A0Z2/+Zsf4cCBGenkWKkEWQrBHMhVKSnlFKS9GAYBBCOC3OUgFDkK8to+IkZmvVrFMIDHkK6jLwchJtnSQ+yFYHdJ6UXOFFErwUtTh3Di5ZMYDUazMkat6NiKTd01zgLOAt9cCziAsNt7qz5GIgkRvr72Je6sLgENgATGWmI6HZY5Zz5elFru5SDkOQpFjoFUs2+SpjAeLR9FyEcyeiMUduhaNA6S3nJMnliZ22bXxKpvctxl6RR7rp3cnnKA0FUyZAXDp59+KhwJCiXRtQdVE+Uo5SCkR+xBHAQBCJYGQU8KQmII+fRAni+wGYAwx/xBHATEAZLYR+gzctUBvAh+5MPf8PHW8XcwMz7brVrYSYO7sZwFnAX2tAUcQHhO2yfEMcRY7azg/33xU1TGAkk1MGJddJr2/WI3x550Q8H569vLOAgpQBiUprABQhFgmPu9BEX71KkAocz5s0EV896T4xPZibUsWrBbEQS+FXXw5B58/fXXAhD2799vNCqIY0qqA7qgYTAAsHUWbBtlZZADIghmDlPmmCMuWuvJogwFkKHrk+eTQCIIEQgQQqlrDGIfk9VJvHviW/DjAIGmFJ7T34Ob1lnAWWD4LOAAwvPYk7RnAwFCO2nj2p0ruHHnBiiSmKUCChLHmYMf1GNBOAi97aJzYICn9lQVrx9IkJO9kCIy4ecCaOmNLthARMiO2s/Beh+MdrCN8vLyMk4eP9HT68Heit0GCJybVRYsw5ybm8PIyAj8wEMYd3qiBznnW2iSZKcQ+FRU4rjtiIQQDDcpY6RQkT1nESyYUMwArkRMMEpRKDZ14p0EVVTx5vyb2N84gADs3um6Nj6PrwI3p7PAMFvAAYTd3p1C6dhG2ETodfCrC7/ERrQBVjGWndptgMAl2ymIHKiwejGUjiO+pFcoKTem3c/Bsk93zv4RBLmmBCDoWii3vHh7Eadeew2BH4CggSF1TZU8S5BQlmKQXgfp/CRQEiQQIHA9fuAjRv9eDGat+S6KZSmEQRyETCmxEBXoRi20IdSTcxAI80hUFDDC6EHiY3psCqePnJHoQcWrsmxht/8S3HzOAs4CQ24BBxB2e4MUIEgUIQHVFeEnuLp0BQv3FhBVImGXs4lTqYNP19uPo+B7+VbNxTB/GQchd/onEVKkn02UwHZ43bHKOQhdEGM4CGUpBobxF24tYO6VVzA+Ni7XkJPA97vbN68SgLoUtDcBwYULFwQsnDx50kQNjKrUQJ2DfkJKWZSAao2FPgi5CEDKQehHMCwjMdoRCPO6kjJHe04PaHc6qFVrCFshal4Np0+cxlRjCh65CEwvOHyw2x8/N5+zwNBbwAGE3d4irSvXeX2ChDY66ODcpS+xEi7Ll7WWoJHUl0sFlDQ4yj9vmuqUAQh5zIogaNSg+NM0UuqCADt3vhkHoV8EQZ0atRAoZXxgchqHDh0SPoKcainMs8u3oFpBO+xkIOWTTz7B2NgY3nnnHRPZoL5BChB0/cUIQbFRk76FzOGnJ/O+FQYWQCg6fnO/NwVRnEN0GAYoKfK5VtTGSHUE7bU25g8dw/xL86KoSeUNsJyj4hDCLn/83HTOAkNvAQcQdnuLFCBoJMFn9UJLdBDurd/HF1e/kNA2HYq2SM6lE/pUOGQgwWodXTzBZwChwEFQgJCLAPCalD+gAKEb0dicg+CLRGSecKmg5+qVqxip1zH36lwGhOxoyW5tCSMIGnZvtzv45JMfS5OmLILAToaM8GxSplju2NPUwyAlRtEoIBMlzzHoAQAWB6FsLio+DuIgCPcgSJB0gMnaJN458Q4qqCBIagYcMNrgAMJufezcPM4Ce8YCDiDs+laRVZ4W4BvXIymGMOkg9hL8+vavsXRvCbV6DZ2oLSdriXSLw+ap3jievhECy/mXpSgMAbE3wmCPado5d+ewSxhlzEK/B6n0z+km9OogSOdEKXOs4MaN66gFVRw6fCiTmN71beCE0kTTQ7vTxvraOn72s88EHBydn0fYITBIWy33lVJOyYGWamFPBIEy032aNUlUQU7+JWqNdnlkqlZkohBdS2lUggCDs9jPC7chTT+wX4TPSEbbw+mjpzE7fhABy1DlnxHpyjSln8tGuEmdBZwFhtECDiAM0a7wi345fIxzF89hI14XUZug4iNIGPDniS8wTk17N5RVOlhljsUTvN5nqaQdXSgCABE5GtCMyTipQToJZP6Z/hI6pzYHynQQqrUstM/ntsJB2G6UoUhKLNtqveby5cvSjpoKivv27bP4F4OllrVMsm8UwTcEQTsKkeckGAfdn4PA51h90B2jOJcEAdL22QogJC6RMHYQynuJmxHmDx7D/Oxx1Cm6kQIkggdWNrCSwd2cBZwFnAVsCziAMESfB35Rh2jj1oMF3Fi6ZgiLDB+LDHMgUQTj3M2iy1IIGKCD0E0h5CMIRY4BwUFRSjkPKDj3AKllLi4FCPo6AgCSEfV+HCcCCji3PrfZVuw0QCAw4fxsXMQmTdeuXcNv/MZvSGpHmhjFsdi6L8mQqQErhWADEpuD0K+bo3H05DkMmINRAFDOuT+IyHivdiVEum6TQokxWhnF26+9gzFMIAhZKmMiKNJsioJQDiBs9vFzzzsLvHAWcABhqLY8Fj4CI/jnrnyJxxuPEHoRu+9KCJjh8CqdtxUBUKCQOc9NdBB4fVGNUU2QAQiOYUUIinMYWWWiFl7VB6ykXqvo1LWcMQxNF0T2PSienvttyU4DBK6FoIVAgC2eqaTIVtQEB4JxpPyxq6RYBABaYaDOu/SnJedcdPLyvrcAMkwjpv46B7HYmmWMpvLCRBO6pEM/8XHy6ElMN/aj7jWQtE3PBSnxdABhqL4B3GKcBYbJAg4gDNNu0AlEhrC4Hm3giwvnsJ5sIApixH4iwYFaHJCy0L9Pwg5FELaaYijlOZREEGzCIysZFhZuY3R0VDQH6JjVKQ/ajp0GCAoCCBJYWcHUwszMjCxB5KAlipBv55xz8lISYlbcN0XAMkfr+VyJY9prYdMUwyYRBH4wmHbStALXQ1Ag/2IfU+NTOHHkBGqoS8fGml8zVBZGEFKCpEaMhurPwS3GWcBZ4LlawAGE52r+ksnFIUVA4OHOyl1cvHEJzaQJjAQI4xB1phoG8APsFIOe/Is/lYBoP66/m0qHrXMQigBBx0kihud7BZX0HV+5clVC+5Q1pjMuCiVtFwyUbeNmHAQ+z8oKGyDMzs4Whup2aszem4bySTDcrNeC0DHy/IE8oOjlICjYyNZPnsCAfg4MMQk48Mg5iASzsPiiltQxUd8nmgcVIZ6mkSEJMxjFbOU22BGHYfuTcOtxFnAWeD4WcADh+di9/6yMF9NxESRUPFy7cw3X7lxFVIsRBRFqkeEi9HP+BAhFboLt/OX3TUolefJUh1HKc5DZB3MQFCCUrYWvXlxcAvsyHD9+XBx0UQdhNwACUwitVku0GG7evIn5+Xk0GimBL9uh3l4LmYNPmyTZDt+OlJgqhW7HSL0u9zNNMRQjCzneAyMVA1pKEyDwisgLJWXA98VoQS2u48yJtzFeG8+gwbB93N16nAWcBYbXAg4gDNvesBNvwgoA5ocTtJMNXLh1Hksri4grESpJzXzZ9+nVoACh38leXLt1si8CDQEPm3AQjMm6QKQMrJCkWPp4au+VlVXpy8CuiYwkFG+7BRA4Dxs0LSws4OOPPy5JdfRKKXcdfG8nRn0f6uC13bMNIuxryjgIPaTIAgehOAciAoREOjVGHiMIPjwpaXwLB8dfQsDogTIZnR7SsP3Fu/U4CwytBRxAGLKtieJEHDiJZqKo6HWw2lnGhZtfY7WzCgEApotSN1KQiwiYbovyn6Wvn91P0+aSSiiADHXokmJQEKIVE/acciwurqF7X0LcrACwxsg7fA/N9Q05tVOYiJ0TeYq3b7sBEJjW4DyfffaZzP/BBx8YLkHmTcWtm/C+/J+WbkqQx6QXbAXD3PM5HQPlKJjxumDByG3bHSWLQELmLjRrKvIePLZzlghCR1IM3Ju52TkcO3AcXsdHvVLPUgoGtbnUwpD92bvlOAsMpQUcQBjKbekuimWOZNI/Wn6My1cv4VH1kZAWK8LAj1BlDwOqLvLcmFY6qEaB8f82D8DcF59k8gxdtnsKOFJo0E1DGAmeTAip+5oUYCjIkKiHDGJmLOggFEspwzDG7du3JaRPyWVyAXYaIBS3tshJYKqm047wk08/wczsAbz+xhvG4WfOPc3QW+WDqm7ZHcvECAzf0NhA7VVMMZSWQcoiyTHoljqmsCTlHaQAQsWYpFrBzCkEwyRhOymRTPZDD/WkganRKZx49QRqftX01ZBdNt053c1ZwFnAWWCrFnAAYauWek7XKWGNjmfxziK+evAVwkpEdyD17RokyOIGxvObg2Kfcsi+pYmpsxd9fktnoei4DQTo5SDoaySFUUgx6BhdTgK7OJrTeb8+DDsRRbDXXgQIUSdCu9XBjz/5Md48/QbmjsxJ8yZl9oujLhAMbY6BOYd3ZZL1/dsVDYNUFM3aesfoSTGkEQ2NWihAEA0FTsCmU60IDa+BcX8Mp4+fRqPSQBxGCCoVRPLTlG66m7OAs4CzwFYt4ADCVi31nK6jUyDpTF3JleWruLF0XU7c1VoVcRTC87uqhVl6YTOeQeH5DFDoabOP1LJclwKEogPPdBRSgGATFNXpKWih340io6D4vNo9B16Aq5ev4esLX+Pj73+ExsgIElEW7BITFSTo+vMRhJQ8aF0vEQRbObEEZOQBQD5NoR8zG2RoSiDjNVDgyYooUPUgbseYaOzD60dex3h1AlU/MHoIsh7A93e/GdZz+pNx0zoLOAvskAUcQNghQz6rYVSiWJ3omreGm/duYmlpEV7gIUrbRVt5g/TX/kTGflUMGUgoVEIU0wPFXgzqRNX52ykG+8SdL3s0DosVDBy/KLW809EDXaO9TxW/gnNffInHy8t47/1vSyRD9QTs622HrgDBPG8EjGwOQU8VQzphzuEXQUOhjLFnbukZkfIgmO5IBRxlTP7u+aj6VZycO4Xp0WlUUE2lshnIieClLcCf1WfUjess4CzwzbSAAwh7bF830JSo8tVbV3D73m0kfgK/5ktZZLVeRafdRoUOYYDaYhEgFE/3rGLIwIJ1Is7GLDRr2gpA6I02GA7F9evXMT4+LmRFCihRWZE/i7oIup5B21VMIRSvJcii+BHLKynSxBTDxfOX0BhtYO7Iqwgjyg6b7oq2TWznrhEC87ypNimSDHNRB6sjZl8OQgoQyuY0CQiuS6gKQkBko6uNZgv1al0iSVE7xttvvoXx+gQa3oh0aDR8EAMsjCaSIyDssT91t1xngeduAQcQnvsWbG8BZKmHMHnyi9cu4OHKQ8RBLOVt/Fev1pCEJiWxFQ6CHRI3Try3D4OuMIsAmPZ/fUFEkYNQXIdxoOYfywvpGKmoSGenfAT7pF6cv5/FNgMItnPntRvrG1i8vYQDMzOY2j+JTqctlR+mw6LVNtE68evcChC0frC/8zcph+LzuSiBpZRovzflHHDPxc2zbUPiIw4TMD1CqQyChZPzJzE9OoUk8lAN6vJ4yk1UhoQDCNv7M3NXOws4C0iR1Wbfqs5MQ2eBKO5QzABr4RouXr+Eu8t30ZhoYL29jorPtju9Ykm58H6h0dPTRBAUiNhpCAUI+ZRC/gSr/RwePHiAx48fi2ASwQHLDcsAxU5EEJjGYPSA4zOSsLSwhAcPHgo5cWx8zDTG8iR+sK0IwqBOi9JDY6CSIjcj3zEyB2Sob+CFpkIi9iV1UEUNYSdC1a/g6Nw8Dk7MIogDBB47Mko+Iu36aYIOrKtwEYSh+zN2C3IWGHoLOIAw9FtUWCCrAf0ErbAFv+pjPWniyuIV3L6/iEo9kJJ5I8Xc1UkoRhPKUgw5Z74FDkKxm6MCBHHuEg43BDl7XPud8PX0m81mUwSTDh48KL0QCBDK0gs7ARC0rTTnZHnlZz/9DL4X4L3335Pyxg4lnwMvq2LQ92Q7+DwJ0XR7fNIUQxZFGCClzIqF0OsIMGB6wYtYY0KWQQVzrxzBzOQMGqjBS1juSuGMNLgTmLsOIOy1P3C3XmeB4bGAAwjDsxdbW4nJHqR6yTFacUuSDuQk3HtwD3EtQsdvm9CyH4gD5OkxSNLIAmWc06qHHIFQowqqjWA1hCpGGHrKKBn9TkzvBQUIRmshT5TsvkE+rmWORg+BJ/pXX31VTvgECNR+sINbKg61NSOZq9RXptpEiJnC8H1UgopoRvzoRz8SYHLs2DEEgeFdaFhffhd/29uLQfiCqVBSVwaivPKhSFrU9WvaQegcnFpKPolTjBKFvPdUnKlVbUlZa9gK0fBHEDUjnDl5GpOjU6j7VSOexZyC6jprAykraOMYCNv55LhrnQWcBcTNuBTDHvsg5AACRXNCOcWGcRtXb17FzQc3kYyyp7OHVsjnjEMMYoIEXxwjJZztqIINAARXlJRA2id4r0QnoSdNoTimD0gg04E6CCMjI7hw4YJEDl577TUBBybNkOSUIO35t7pjkRQYpFyJFLDQC1Mf4MH9+/jy1+fw7rvvYGJiQvQCengHrLKQSoW8iJF9n+scVBaZJzWalRdTDuaUr4+LxrZeKNim5beEe8D9a/h1nDpyClONSRNNIECwBLG2aht3nbOAs4CzwGYWcABhMwsN2/M5gMDFxYiSjoTIwzjC4sPbuH7nBprtDVRG66alL2WPvQRB2gVSQtUWCLD5A1mKoI8OgryupMqhbIx+6QUDQipSrUBeAAEB+zGQg8DH+LpKxZeohH0rVkJstjVFgMDxGUUI2x18ee4cllce48OPPhSHzfl7yIQShSjv5qiOXsxREEvqn5LoEh9zc6U8Ben6mGGDVEApgaQUSDxsVBs4dfQURqsjqCbsz1jtKiS6EMFmHwf3vLOAs8A2LeAAwjYN9twvt8n1PGzGkWGsp4p8nSTCnUd3cWtpAc2wiSSIpRQSPgvmTY9fEtrs8L/NH5CTegmJMefsSzgKapdupcOgFAN7NXgSLSBAYEdFmTclDxoeAkkU+UqCpwUIjIxI50jPx6c/+Qkmp/fh1OuvG/2DtNLAnkNy+FYFgg2CutebfgpllQrF68uiB8JfFIAQG86A/DQllKLoGHuot+uYGp/C8bkToHZDza9LREF4CcyjkJvoAMJz/9N0C3AW+KZZwAGEPbajxsXnbxohoHNjSJwsfJY/3rx9HWudVcRBhI7XgV81jjAgG77QEVIdtIkQ5AmGtvM3zxt1vkEgo98Y2VjwMyVFrolAYXV1VVIOptzR1PE/zS2SfL650edWGEGIY7Q3Wvj8889x8tRrmJ7ZL0CFj9sOXectk0pWR8/rFchsBSDYKYzu9aZ/BQGCgBGpZTRRHwZqvAiYGzuCo4ePihpi1a8JOJDcg/6j5tRT2upp7Oxe6yzgLPDNtIADCHtsXwd27RUHQ3VFI66zsvYIC3dv4eH6Q6AGtJK2lPIJsW2AToLpPFSuoyBPWCkGva6YYug3RmbuVGxJ7xMcsJqBgknkBCRSzP90m1NMMUhDqCTBvTt3JZXxyqsvw6sYcmLZTcGBAoIMNOSaN6ViRJZuwmYphiIHISEhM+1LYfQhYlSCKtqdDuYOvYJjU8dRD5gCMSoVGeyxPwxPaauns7R7tbOAs8A30QIOIOyxXe2hIIj3St8EnYsQFtkymiS/BO1oA9cXr+Pm3QVUxmqIvQhxaLQG1Ln3/NTOjIVUQwYGUhLdViII9tg5UxcAAsP8Fy9exOTkJGZnZ63UyZNvUBEg8FTOKoZLFy5iYnwcs4cPSrRls1uPQ7d0DaTaosBBUEBRlpIoggxJK3Cv0ppEiQ5EHipeBceOHMf+if2oxqxhYFkoG1t18wkDweJmb8o97yzgLOAssIkFHEDYYx+RVP3f8AQ0sqyhZpLqGD1gaJpOno6Lwj9ejMXHd3Hp+hUR3fErprWynW/PlSSWpBhyYEClfAtj5IBGate+vIECQGCZ482bN4WwyChCtRrseASBqYTHjx7hzuISjszNoTpS2xJAsB1+0cHbKQa9zv5pX1/2PBNCUnZKTkbioxJVsG9kEsdePYGx2ph0YqxK2WeaBiHBk42YRP7I3Lq6lnvsw+yW6yzgLDDUFnAAYai3p3dxdgRBHLJ9AGYEgQdQaQPNYDTFf9qQELYPrLc3cOHqeaxED02XPx3ApMGVnYggCsyJVkoU1dOnHSMNbd+I9qQljMUSR3mFRiGESlAW/84/Rge4vLyMxaVFvPTSS9g3sa879xPsEZfIMko6cP0Z+AE++b8/lpbOH334kWl2tUkEgfbtxy+gISisVHzeBhTchey+0WhMhZX4e8o7ICEzBKpeDZO1Sbx57C35XZIJQjpJpPrCJ4fCkD/MmBlAKLfwE5jNvcRZwFnAWSCzgAMIL8CHQUPd/NnsrOPa8hXcuHUDYxOj2Gg3hQUvlQ70Rr6PaqsOPzYneFZIKLPegAip2M86RgrGSMv07LTFZhUHxee1a+WtW7dENOmlg4dzEY4n2SZDImRTqFDGXFtbw6effooTJ06ItHOrtZFWgAwe3QYAPboGBSllfV5BgZdQ0lBrEiI57kdRS6I6QSUQTkHYjDE2Mo7X5k5iojaBOhoIqDWhwkf9aRJPYhb3GmcBZwFngS1ZwAGELZlpb19kn/AZ0m4nG2hGTZz96iwi6vwHVFcMEfuJ5P5raICCvnJLGfaqj6BVDgoM1NH3lEpmoYdy25UBBFYysDfDw4cPcfTIfJpvfzrbq3Pn2OfOncPdu3fx0UcfidRyu93qKaUsm20g6bDQrdG2h8ydPZ92iJRqCnr8BG2WXMYeDk2/jMMvvYxG0BARZaN5mVYqiKGfzgbu1c4CzgLOAk9iAQcQnsRqe/A1ekLXcj6SFb3Ax/U7V3H77gI2kiaCemCaHVOgyOfZlidcahbw4GtUGNP4eBb+Lzr6Ivmxn6mKr1MFRdUkqFZqUgb5NDftvUBHzejBT3/6Uxw6dEgiCLwRNEjzii3cijoJWVTBAgj2MAoqOuyzIHkKD37sIYkS+Uk1x33jkzhyaA5TjWnUKnVJxXTCDmqVWr5SwQGELeyQu8RZwFlgpy3gAMJOW3QIx8ux6SNDiKPzZGqBGgmrrRVcunUJq80VeazttcWpERSIIycpUQvsRPPfsCIHVTFsN8XAEkRzqjfqigQlhY7L27as6itwzGvXrkkZ5be+9S1MTU3JPCLIlAZKBg2+WYqBr+0HIEIKVRFmEWRFPqh/WEkqOHTgEF45+ApqXk2Eq+T1bHAVeD0S09t+4+4FzgLOAs4CO2ABBxB2wIh7agj6du1iJP19EnSSjjR8erj6AAtLC1haXUJjbMQ0N5JwuIfAM05MmjKlisADSyU3McpmAKK53hKFRZY9bjUqUZyS3ANl/58/f14UE8+cOSPAIEu7kHth3WwxI314M4BgpyCU98DXiihTHAn/gYWK6HiYHpvC3KEj2FffJyREnxyFHuZpN61glC1cCGFP/Y25xToLfEMs4ADCN2Qjt/w2tCQyq06Qbg4mreAB7aiN++v3cenaZUPgSx1os90UUl21XkUSGZDAW99SyacECI8fLePevfuYYzkiHWwqh7zl92kJPbFbJIWY2LWRDpx9FxhBIPhRDQMbDBTn2C4HwShBGkDFmlOmFMYaozjy8lFMjkyh6lUEpElpI3UNbP9fwAIOIGxnx921zgLOAjtpAQcQdtKae2QsKbVLbzyd0qHxpM2f7Py4EbcksrB47zaW7i9ivbMGSFfhBGESStMnRhSK4KAIGAaZY7MIAjtGXr16VZw5yx7r9bpUI2znxuvZPvrevXuSVtBoBJ03OQmNRn1LAIFzlqUQ5PF0QQoiJD3CapFmU0DCgZEZHJ45jP0T0yZlEyeopC2aFRlIBYk1lknouKjBdvbaXess4Cyw8xZwAGHnbTrUIxq1/yh1QMYRxRIRMM2TSKLzKh465CgECTY667izfAeL9xfQiltsLYg4jCU8ntNJYCjct7pEpnLMXceXD+UL4VHEkspvdLKtdhsLCwvYv38/piantl32SIDAngsEByxrpMPOV13QRWuz5VTeISM+pGuT1hSmAsH0VTK9KrIWz9QwSKMyfCkbQYWdEJP7JnF0dxFwAAAHJElEQVTo4GHMNGZQ92rd/ha0G1M8MpgvEZrIErNQKWUHEIb6z8gtzlnghbCAAwgvxDZv703avH7tK9iJOlKCeO/+XTxqP0bbbyGoBiLnHEZtKRck4S/xCDZ8BPGInq0lGiH/ic81QKGSpGJMGskolEWymoLO+P79+yKgdPDgrDRyMg7euM9iJSWFkNhrgs8ncYyLFy9jcXER77zzjoAEIWZaN8ok5QGCaUIlpML0BK+dFWXl9O3snkkioUdgZTy9wKzIR92vY//EAcxOHsT02LSQOwmEPNNu092cBZwFnAX2lAUcQNhT27U7i7WUm2VCOTun3RtZhvdg/T7urNzFo8cPESch/KonwKDF9tIeUK1U4ccs1VPRRdPxgNdoHEEAghVG70k5JAmiyJAMKZ7EBk7q5LU6oVjmwGtlvUmCy5cv4+atBczPH8Orc69KekKfVyt6CC2AQHBg1CVtgNBNIphXSSrBSFAakNDpYHRkDNMT+3Fw6iAa1YYQD0XPoJCG2Z3dc7M4CzgLOAvsjAUcQNgZO36jRim2L5LKBXIVeHrmsZ2CSojQitq4++AOlh7cQSvckPSDdCJm9iHu5tV5tUQR0kgCjUUpIJudVwQIjAa0mhvCQWDVAX+qk2eqgCTDKnUMrBuf53NMS1y/cQMHZg9g/tgxo3cgFRjFd0amYNrhSiMGuR4RBioIGKC0tOgYmN8rfgX7xvdhZvoAJscnUfNrcqXwDPiqFET4LnrwjfrbcG/GWeBFsoADCC/Sbj/heyV5kQ5cSwZN/0LTR8APfLBIcmVjBXeYflh5jFbYghekbaUEFGj0wMg5874oBVq3HmXFKBLBIDp9OniCBFYzEBiQeDg2NpYKN+XfFLUOSG6cmZ3F0ePz2WvFzRdyEhLRIJhJnXkmbZylGExLJAICahUwdbJvdBIzU7MYHxnDeGMcQRoJESEq30MYh6gw15JKMDuA8IQfOvcyZwFngeduAQcQnvsW7MEF2KWSXiKcO9N6SOsjYlxZuoCHjx6KMqA5hksxpfxOUBHGnYz0p4JLJnyfkgG1UZHV64HRAUolr6ysCFiYmpwU49E5s2qAwIFjSTpielrmEzaBbwSfNALB30XTIV2vtKAgYJE22YYbwaUQEBEgjDbGcXD/LGYmZlD16mmUwDcVoDatIddicw/uq1uys4CzgLOAfXBLypRhnImcBYrR+EEWSSPq6ivp4iO0JZvP1MPj1ce4d/+enK7ppCNE6KBj+hSnDl6jFOQvEAhEcShOXJw0c/0pwVDBwKNHjxCFoYgpkcg4PT2NmZkZ4SmwJFJ0DirV7qqFOpDkyhVJHmRUgGNG7QhB4qNRr2O0PorJiX0Ym5hAvdYQ8qHyJQKwy2KKeWyAYOlKyKSuStH9DTkLOAvscQu4CMIe38BnsvxNwIE2GSz6RC33k0q+JBRAYDoWUoCpIxwFQ1xMcHnxCtaaa+LgCQBU3VDxalAzJYDaO4LvU8owk0RAhsgyt1qi3cD7knLwfRmH49WqNSRhtxqBr+drozDKuBSjtREEQQ2jjVHs3zeF8dExjFQaqDCKkHp5oTGGETw/MKkD2/dvBUQ5oPBMPqJuUGcBZ4FnbwEHEJ69jffeDJs4vjgt5Rennf6TPL5V/kDtADaDkjYEcYSN1gYq9ao4WQb32wizhEQLLTmhNzeaYGSAZY1rnVXEXpj1e9AoAqMDBAG8kaRIhUSCA0YMCBAYfRAwECdI2oFUEvBx/qNQEl8/OjoqAKOBOiqoZLJECRUQySmQUIgHUOXQECYU2WRRj0wgSXIMaamjhkTsMhBX4bj3Pv9uxc4CzgLmMORSDO6TsF0LFPFDdki2n+h7cjYcA5Ic9VYmCkTGgvhZchLS6oNuNqzLU7AbUWXjUXtAuAumokA4DsImyPc10ChBdx0pMOh6/26qoM/7UdZFcSyDUlyqYbufLXe9s4CzwPBYwAGE4dkLtxJnAWcBZwFnAWeBobGAAwhDsxVuIc4CzgLOAs4CzgLDYwEHEIZnL9xKnAWcBZwFnAWcBYbGAg4gDM1WuIU4CzgLOAs4CzgLDI8FHEAYnr1wK3EWcBZwFnAWcBYYGgs4gDA0W+EW4izgLOAs4CzgLDA8FnAAYXj2wq3EWcBZwFnAWcBZYGgs4ADC0GyFW4izgLOAs4CzgLPA8FjAAYTh2Qu3EmcBZwFnAWcBZ4GhsYADCEOzFW4hzgLOAs4CzgLOAsNjAQcQhmcv3EqcBZwFnAWcBZwFhsYCDiAMzVa4hTgLOAs4CzgLOAsMjwUcQBievXArcRZwFnAWcBZwFhgaCziAMDRb4RbiLOAs4CzgLOAsMDwWcABhePbCrcRZwFnAWcBZwFlgaCzgAMLQbIVbiLOAs4CzgLOAs8DwWMABhOHZC7cSZwFnAWcBZwFngaGxgAMIQ7MVbiHOAs4CzgLOAs4Cw2OB/w9TRlFHlg+5PgAAAABJRU5ErkJggg==;" vertex="1" parent="7">
                    <mxGeometry x="455" y="130" width="260" height="130" as="geometry"/>
                </mxCell>
            </root>
        </mxGraphModel>
    </diagram>
</mxfile>